<svg width="521" height="185" fill="none" xmlns="http://www.w3.org/2000/svg"><path d="M140.348 86.772c0 .937-.166 1.943-.498 3.017a8.509 8.509 0 0 1-1.582 2.988c-.723.918-1.67 1.69-2.842 2.315-1.172.605-2.608.908-4.307.908h-28.916a3.916 3.916 0 0 1-1.523-.293 4.03 4.03 0 0 1-1.23-.791 4.03 4.03 0 0 1-.792-1.23 3.921 3.921 0 0 1-.293-1.524V57.826c0-.527.098-1.025.293-1.494.195-.469.46-.879.791-1.23a3.775 3.775 0 0 1 1.231-.82 3.916 3.916 0 0 1 1.523-.294h25.488c.938 0 1.944.166 3.018.498 1.074.332 2.07.87 2.988 1.612.938.722 1.709 1.67 2.315 2.842.625 1.171.937 2.607.937 4.306v1.436c0 1.347-.224 2.802-.674 4.365-.449 1.543-1.171 3.008-2.168 4.394.86.528 1.661 1.162 2.403 1.905a11.944 11.944 0 0 1 1.992 2.578c.566.976 1.016 2.08 1.348 3.31.332 1.23.498 2.588.498 4.073v1.465Zm-7.618-1.465c0-.996-.156-1.885-.468-2.666a5.884 5.884 0 0 0-1.319-2.051 5.556 5.556 0 0 0-2.05-1.29c-.801-.312-1.7-.468-2.696-.468h-17.168v-7.676h13.741c.996 0 1.894-.146 2.695-.44a5.888 5.888 0 0 0 2.051-1.318 5.607 5.607 0 0 0 1.289-2.021c.312-.8.468-1.7.468-2.695v-1.436c0-1.094-.527-1.64-1.582-1.64h-21.709v26.777h25.137c.137 0 .303-.01.498-.03.195-.019.371-.078.528-.175.156-.098.293-.264.41-.498.117-.235.175-.557.175-.967v-1.406Zm58.36-6.3c0 2.56-.44 4.913-1.319 7.061-.878 2.149-2.099 4.004-3.662 5.567-1.562 1.562-3.418 2.783-5.566 3.662-2.129.86-4.453 1.289-6.973 1.289h-10.312c-2.52 0-4.854-.43-7.002-1.29-2.149-.878-4.004-2.099-5.567-3.661-1.562-1.563-2.793-3.418-3.691-5.567-.879-2.148-1.318-4.502-1.318-7.06V70.98c0-2.54.439-4.883 1.318-7.032.898-2.168 2.129-4.023 3.691-5.566 1.563-1.563 3.418-2.783 5.567-3.662 2.148-.88 4.482-1.319 7.002-1.319h10.312c2.52 0 4.844.44 6.973 1.319 2.148.879 4.004 2.1 5.566 3.662 1.563 1.543 2.784 3.398 3.662 5.566.879 2.149 1.319 4.492 1.319 7.032v8.027Zm-7.617-8.026c0-1.504-.244-2.862-.733-4.073-.469-1.23-1.142-2.275-2.021-3.135-.86-.879-1.905-1.552-3.135-2.021-1.211-.488-2.549-.733-4.014-.733h-10.312c-1.485 0-2.842.245-4.072.733a8.937 8.937 0 0 0-3.135 2.021c-.879.86-1.563 1.905-2.051 3.135-.469 1.211-.703 2.569-.703 4.073v8.027c0 1.504.234 2.87.703 4.101a9.285 9.285 0 0 0 2.051 3.135 9.521 9.521 0 0 0 3.135 2.022c1.23.468 2.587.703 4.072.703h10.254c1.484 0 2.832-.235 4.043-.703 1.23-.489 2.285-1.163 3.164-2.022a8.938 8.938 0 0 0 2.021-3.135c.489-1.23.733-2.597.733-4.101V70.98Zm59.238 8.027c0 2.558-.44 4.912-1.318 7.06-.879 2.149-2.1 4.004-3.663 5.567-1.562 1.562-3.418 2.783-5.566 3.662-2.129.86-4.453 1.289-6.973 1.289h-10.312c-2.52 0-4.854-.43-7.002-1.29-2.148-.878-4.004-2.099-5.566-3.661-1.563-1.563-2.793-3.418-3.692-5.567-.879-2.148-1.318-4.502-1.318-7.06V70.98c0-2.54.439-4.883 1.318-7.032.899-2.168 2.129-4.023 3.692-5.566 1.562-1.563 3.418-2.783 5.566-3.662 2.148-.88 4.482-1.319 7.002-1.319h10.312c2.52 0 4.844.44 6.973 1.319 2.148.879 4.004 2.1 5.566 3.662 1.563 1.543 2.784 3.398 3.663 5.566.878 2.149 1.318 4.492 1.318 7.032v8.027Zm-7.617-8.027c0-1.504-.244-2.862-.733-4.073-.468-1.23-1.142-2.275-2.021-3.135-.86-.879-1.904-1.552-3.135-2.021-1.211-.488-2.549-.733-4.014-.733h-10.312c-1.484 0-2.842.245-4.072.733a8.937 8.937 0 0 0-3.135 2.021c-.879.86-1.563 1.905-2.051 3.135-.469 1.211-.703 2.569-.703 4.073v8.027c0 1.504.234 2.87.703 4.101a9.285 9.285 0 0 0 2.051 3.135 9.521 9.521 0 0 0 3.135 2.022c1.23.468 2.588.703 4.072.703h10.254c1.484 0 2.832-.235 4.043-.703 1.23-.489 2.285-1.163 3.164-2.022a8.924 8.924 0 0 0 2.021-3.135c.489-1.23.733-2.597.733-4.101V70.98Zm52.529-9.375h-16.787V96h-7.617V61.605h-16.817v-7.617h41.221v7.617Zm45.996 22.03c0 1.505-.195 2.862-.586 4.073-.371 1.191-.869 2.246-1.494 3.164-.625.918-1.357 1.7-2.197 2.344a13.465 13.465 0 0 1-2.608 1.582 12.98 12.98 0 0 1-2.754.908c-.918.195-1.787.293-2.607.293h-29.385v-7.617h29.385c1.465 0 2.598-.43 3.398-1.29.821-.859 1.231-2.011 1.231-3.456 0-.703-.107-1.348-.322-1.934a4.349 4.349 0 0 0-.938-1.523 3.9 3.9 0 0 0-1.465-.996c-.566-.235-1.201-.352-1.904-.352h-17.519c-1.231 0-2.559-.215-3.985-.644a12.33 12.33 0 0 1-3.984-2.14c-1.211-.976-2.227-2.255-3.047-3.837-.801-1.582-1.201-3.516-1.201-5.8 0-2.286.4-4.21 1.201-5.772.82-1.582 1.836-2.862 3.047-3.838 1.23-.996 2.558-1.71 3.984-2.139 1.426-.45 2.754-.674 3.985-.674h25.927v7.617h-25.927c-1.446 0-2.579.44-3.399 1.319-.801.879-1.201 2.04-1.201 3.486 0 1.465.4 2.627 1.201 3.487.82.84 1.953 1.26 3.399 1.26h17.578c.82.019 1.689.136 2.607.35a12.19 12.19 0 0 1 2.725.938c.918.43 1.787.977 2.607 1.64.82.646 1.543 1.427 2.168 2.345.645.918 1.152 1.972 1.523 3.164.372 1.191.557 2.539.557 4.043Zm43.828-22.03H360.66V96h-7.617V61.605h-16.816v-7.617h41.22v7.617ZM422.828 96h-7.617V85.687h-26.777V96h-7.618V74.994c0-3.066.528-5.888 1.582-8.467 1.055-2.578 2.52-4.795 4.395-6.65 1.875-1.855 4.092-3.3 6.65-4.336 2.559-1.035 5.352-1.553 8.379-1.553h17.168a3.84 3.84 0 0 1 2.725 1.114c.351.351.625.761.82 1.23.195.469.293.967.293 1.494V96Zm-34.394-17.93h26.777V61.606h-13.389c-.234 0-.732.038-1.494.117-.742.058-1.611.224-2.607.498-.977.273-2.012.693-3.106 1.26-1.094.566-2.099 1.347-3.017 2.343-.918.996-1.68 2.246-2.286 3.75-.585 1.485-.878 3.291-.878 5.42v3.076ZM469.322 96h-27.48c-.703 0-1.465-.078-2.285-.234a12.804 12.804 0 0 1-2.403-.791 11.7 11.7 0 0 1-2.256-1.348 10.033 10.033 0 0 1-1.933-2.021c-.547-.801-.986-1.72-1.319-2.754-.332-1.055-.498-2.237-.498-3.545V64.682c0-.704.079-1.455.235-2.256.176-.82.439-1.621.791-2.403.351-.8.81-1.562 1.377-2.285a9.384 9.384 0 0 1 2.021-1.904 10.054 10.054 0 0 1 2.754-1.348c1.035-.332 2.207-.498 3.516-.498h27.48v7.617h-27.48c-.996 0-1.758.264-2.285.792-.528.527-.791 1.308-.791 2.343v20.567c0 .976.263 1.738.791 2.285.547.527 1.308.79 2.285.79h27.48V96Zm51.24 0h-10.81l-17.139-17.168h-5.361v-7.676h5.361l17.139-17.168h10.81l-21.591 21.006L520.562 96Zm-36.357 0h-7.617V53.988h7.617V96Z" fill="#454444"/><g clip-path="url(#a)"><path d="M14.008 72.683a.998.998 0 0 1-.631.913 1.006 1.006 0 0 1-1.357-.74.997.997 0 0 1 .43-1.022 1.005 1.005 0 0 1 1.486.462c.05.123.074.255.072.387Zm-1.003-3.668a1.122 1.122 0 0 0-1.035.69 1.115 1.115 0 0 0 .816 1.523 1.123 1.123 0 0 0 1.15-.475 1.116 1.116 0 0 0-.931-1.738Zm0 8.02a.804.804 0 0 0-.786.8.782.782 0 0 0 .786.784.786.786 0 0 0 .785-.783.799.799 0 0 0-.785-.817v.016Zm-2.207-5.952a1.053 1.053 0 0 0 .669-.967l-.669.967Zm2.207 3.335a.905.905 0 0 0-.846.544.898.898 0 0 0 .646 1.238.905.905 0 0 0 1.085-.882.898.898 0 0 0-.885-.967v.067ZM10.43 71.75l-.802 1.2a.934.934 0 0 0 .886.634.936.936 0 0 0 .811-.926.932.932 0 0 0-.811-.925l-.084.017Zm0 7.987a.67.67 0 0 0-.651.65.65.65 0 0 0 1.1.448.633.633 0 0 0 .187-.448.65.65 0 0 0-.636-.65Zm0 5.335a.453.453 0 0 0-.442.538.45.45 0 1 0 .442-.538Zm0-2.668a.552.552 0 0 0-.54.658.55.55 0 0 0 .752.4.55.55 0 0 0 .34-.507.55.55 0 0 0-.552-.6v.05Zm0-5.319a.737.737 0 0 0-.72.877.733.733 0 0 0 1.002.535.734.734 0 0 0-.282-1.412Zm2.575 2.602a.703.703 0 0 0-.689.836.7.7 0 0 0 .957.51.702.702 0 0 0 .38-.914.7.7 0 0 0-.648-.433Zm9.226-1.868a1.049 1.049 0 0 0 .351.784l1.17-1.768a1.004 1.004 0 0 0-.45-.1 1.088 1.088 0 0 0-1.07 1.084Zm-8.458-11.238-1.353 2.034a1.222 1.222 0 0 0 1.686-1.6 1.266 1.266 0 0 0-.333-.434Zm18.94 3.451-3.11-2.05-2.173 3.334c-.118-.1-.22-.219-.3-.35a1.42 1.42 0 0 1-.636.534c.205.108.382.262.518.45l-2.373 3.585a1.012 1.012 0 0 1 0-.234 1.266 1.266 0 0 1 .969-1.234 1.354 1.354 0 0 1-1.036-.983 1.3 1.3 0 0 1-1.431.931 1.305 1.305 0 0 1-1.127-1.281 1.316 1.316 0 0 1 .903-1.234 1.406 1.406 0 0 1-.92-.867 1.367 1.367 0 0 1-1.253.867 1.34 1.34 0 0 1-1.32-1.15 1.265 1.265 0 0 1-.832 1.008 1.274 1.274 0 0 1-1.643-.833 1.264 1.264 0 0 1 .92-1.593 1.355 1.355 0 0 1-1.02-1 1.299 1.299 0 0 1-.902.917 1.306 1.306 0 0 1-1.604-.867 1.297 1.297 0 0 1 .835-1.618 1.42 1.42 0 0 1-.82-.684l3.56-5.369-3.108-2.05 7.187-2.302 9.094-2.917 1.621 16.99ZM16.965 58.627l-.15-.15-.15.15.15.15.15-.15Zm-.685 5.12c.236.138.427.34.551.583.1-.234.269-.432.485-.567a1.67 1.67 0 0 1-.501-.484 1.32 1.32 0 0 1-.535.467Zm1.254 2.567a1.47 1.47 0 0 1-.703-.684 1.402 1.402 0 0 1-.852.684 1.287 1.287 0 0 1 .852.884 1.384 1.384 0 0 1 .703-.884Zm1.638-5.119c.08.064.153.137.217.217l.2-.217-.2-.2-.217.2Zm-.184 2.568c.167.108.31.25.418.417.088-.16.208-.302.35-.417a2.54 2.54 0 0 1-.367-.367 1.419 1.419 0 0 1-.401.367Zm-.218 2.551c.278.141.501.37.636.65.117-.265.308-.49.551-.65-.23-.13-.421-.32-.551-.55a1.453 1.453 0 0 1-.636.55Zm1.421 2.568a1.422 1.422 0 0 1-.785-.767 1.418 1.418 0 0 1-.953.767 1.271 1.271 0 0 1 .953 1.034 1.332 1.332 0 0 1 .785-1.034Zm1.672-7.687.1.1.117-.133-.1-.084a.384.384 0 0 1-.117.117Zm-.134 2.568c.102.082.192.177.267.283.07-.105.155-.2.251-.283l-.25-.25c-.081.092-.171.175-.268.25Zm-.2 2.551c.192.128.353.3.467.5.103-.19.246-.354.418-.483a2.07 2.07 0 0 1-.418-.434c-.131.177-.303.32-.501.417h.034Zm1.103 2.585a1.67 1.67 0 0 1-.636-.618 1.386 1.386 0 0 1-.702.6c.33.147.588.416.72.751.1-.306.308-.567.584-.734h.034Zm1.788-5.136.15.167.151-.167-.15-.133-.15.133Zm-.167 2.568c.126.09.234.203.318.333.092-.123.199-.235.317-.333l-.317-.3a1.82 1.82 0 0 1-.351.3h.033Zm-.217 2.567c.235.132.427.329.551.567.1-.234.269-.432.485-.567-.2-.124-.37-.288-.501-.483-.145.207-.341.373-.569.483h.034Zm1.253 2.552a1.47 1.47 0 0 1-.702-.684 1.402 1.402 0 0 1-.835.684 1.304 1.304 0 0 1 .835.883 1.384 1.384 0 0 1 .669-.883h.033Zm1.822-7.687.084-.1s-.1.067-.117.1h.033Zm-.167 2.568c.076.064.143.136.2.216l.201-.216-.2-.2-.2.2Zm.585 2.567a1.67 1.67 0 0 1-.384-.366 1.336 1.336 0 0 1-.385.367c.157.114.293.255.402.416.084-.158.198-.3.334-.416h.033Zm2.307-2.584v-.083l-.134.1.117.1.017-.117Zm2.457 2.751.15-.166-.133-.134-.167.133.15.167ZM17.518 85.522a.614.614 0 0 0 .184.45l.702-1.05h-.251a.636.636 0 0 0-.635.6Zm-4.513-3.168a.62.62 0 0 0-.607.738.617.617 0 0 0 .843.45.617.617 0 0 0 .382-.57.633.633 0 0 0-.618-.618Zm0 2.668a.52.52 0 0 0-.509.618.516.516 0 0 0 .707.377.517.517 0 0 0 .32-.478.516.516 0 0 0-.518-.534v.017Zm0 2.651a.435.435 0 0 0-.308.74.435.435 0 0 0 .742-.306.432.432 0 0 0-.434-.45v.016Zm0 2.668a.335.335 0 0 0-.291.41.334.334 0 0 0 .658-.06.333.333 0 0 0-.367-.367v.017Zm-.251 2.901a.298.298 0 0 0 0 .15l.25-.383a.252.252 0 0 0-.25.217v.016Zm2.825-13.606a.77.77 0 0 0-.71.474.766.766 0 0 0 .56 1.046.77.77 0 0 0 .919-.753.783.783 0 0 0-.77-.783v.016Zm0-2.65a.854.854 0 0 0-.836 1.016.85.85 0 0 0 .67.668.854.854 0 0 0 1.018-.834.848.848 0 0 0-.852-.867v.016Zm0 5.318a.67.67 0 0 0-.656.797.667.667 0 0 0 .912.486.668.668 0 0 0 .412-.616.666.666 0 0 0-.668-.617v-.05Zm0-10.688a1.089 1.089 0 0 0-1.016.658 1.081 1.081 0 0 0 .78 1.488A1.089 1.089 0 0 0 16.65 72.7a1.066 1.066 0 0 0-1.07-1.1v.016Zm0-2.684a1.206 1.206 0 0 0-1.124.73 1.198 1.198 0 0 0 .866 1.646 1.207 1.207 0 0 0 1.24-.507c.134-.198.204-.43.205-.669a1.183 1.183 0 0 0-1.187-1.217v.017Zm0 5.369a.971.971 0 0 0-.896.597.965.965 0 0 0 .707 1.318.972.972 0 0 0 1.09-1.323.966.966 0 0 0-.901-.609v.017ZM10.43 90.374a.285.285 0 0 0-.262.175.283.283 0 1 0 .547.109.3.3 0 0 0-.285-.284Zm0 2.668a.185.185 0 0 0-.18.22.183.183 0 1 0 .18-.22Zm0 2.668a.1.1 0 0 0-.1.084.1.1 0 0 0 .1.1.1.1 0 0 0 0-.1v-.1.016Zm5.149-8.103a.486.486 0 0 0-.476.578.483.483 0 0 0 .879.174.482.482 0 0 0-.403-.752Zm0-2.668a.586.586 0 0 0-.574.697.583.583 0 0 0 .798.425.584.584 0 0 0-.224-1.122Zm-5.149 2.784a.369.369 0 0 0-.36.439.367.367 0 0 0 .501.267.367.367 0 0 0-.14-.706ZM20.727 76.82a1.005 1.005 0 0 0-.927.617.998.998 0 0 0 .732 1.364 1.005 1.005 0 0 0 1.198-.981 1 1 0 0 0-1.003-1Zm0-5.37a1.24 1.24 0 0 0-1.143.762 1.231 1.231 0 0 0 .902 1.683 1.24 1.24 0 0 0 1.27-.525 1.232 1.232 0 0 0-1.029-1.92Zm0 8.054a.887.887 0 0 0-.886.884.882.882 0 0 0 .886.883h.1l.753-1.15a.883.883 0 0 0-.853-.617Zm2.574-5.486a1.204 1.204 0 0 0-1.062 1.193 1.2 1.2 0 0 0 1.062 1.192 1.204 1.204 0 0 0 1.062-1.192 1.199 1.199 0 0 0-1.062-1.193Zm-2.574.084a1.121 1.121 0 0 0-1.12 1.117 1.116 1.116 0 0 0 1.12 1.117 1.121 1.121 0 0 0 1.12-1.117 1.116 1.116 0 0 0-1.12-1.084v-.033Zm-2.574-2.585a1.172 1.172 0 0 0-1.093.71 1.165 1.165 0 0 0 .842 1.6 1.173 1.173 0 0 0 1.206-.492c.13-.193.198-.419.198-.65a1.15 1.15 0 0 0-1.153-1.168Zm0 10.705a.736.736 0 0 0-.735.734.733.733 0 0 0 .735.733.737.737 0 0 0 .735-.733.733.733 0 0 0-.735-.734Zm-7.723-7.803a.837.837 0 0 0-.835.833.833.833 0 0 0 .835.834.837.837 0 0 0 .836-.834.833.833 0 0 0-.836-.834Zm7.723 2.467a.922.922 0 0 0-.854.578.916.916 0 0 0-.065.356.898.898 0 0 0 .564.852.905.905 0 0 0 .355.065.922.922 0 0 0 .936-.917.932.932 0 0 0-.936-.934Zm0-2.684a1.055 1.055 0 0 0-.985.637 1.048 1.048 0 0 0 .757 1.442 1.055 1.055 0 0 0 1.264-1.029 1.05 1.05 0 0 0-1.036-1.05Zm0 5.369a.82.82 0 0 0-.803.976.816.816 0 0 0 .643.642.82.82 0 0 0 .979-.801.816.816 0 0 0-.82-.817ZM7.856 82.454a.519.519 0 0 0-.501.5.5.5 0 0 0 .501.484.485.485 0 0 0 .502-.483.5.5 0 0 0-.502-.5Zm0 5.336a.301.301 0 0 0-.213.512.301.301 0 0 0 .426-.424.301.301 0 0 0-.213-.088Zm-2.574 2.718a.15.15 0 0 0-.15.15.15.15 0 0 0 .15.15.15.15 0 0 0 .106-.256.15.15 0 0 0-.106-.044Zm2.574-10.705a.57.57 0 0 0-.585.584.583.583 0 0 0 .585.583.586.586 0 0 0 .585-.583.583.583 0 0 0-.585-.584Zm0-2.65a.67.67 0 0 0-.656.796.666.666 0 0 0 .912.486.669.669 0 0 0 .413-.616.666.666 0 0 0-.669-.667Zm0 7.97a.402.402 0 0 0-.393.477.4.4 0 0 0 .547.292.401.401 0 0 0-.154-.77Zm-.284-9.172c.094.018.19.018.284 0a.786.786 0 0 0 .77-.766.75.75 0 0 0-.268-.467l-.786 1.233Zm.284 14.49a.218.218 0 0 0-.213.26.216.216 0 0 0 .296.157.217.217 0 0 0-.083-.417Zm0 2.668a.117.117 0 1 0 0 .233.117.117 0 0 0 0-.233Zm-2.574-13.24a.519.519 0 0 0-.508.619.517.517 0 0 0 .706.376.518.518 0 0 0-.198-.994Zm-2.574 8.038a.185.185 0 0 0-.18.219.183.183 0 0 0 .25.134.184.184 0 0 0-.07-.353Zm0 2.65a.1.1 0 1 0 0 .201.1.1 0 0 0 0-.2Zm0-5.318a.285.285 0 0 0-.284.283.283.283 0 0 0 .485.2.283.283 0 0 0-.201-.483Zm0-1.918a.368.368 0 0 0 .368-.366.483.483 0 0 0 0-.15l-.368.516ZM.134 87.957A.134.134 0 0 0 0 88.09a.134.134 0 1 0 .134-.133Zm5.148-.117a.251.251 0 0 0-.246.299.25.25 0 0 0 .342.182.25.25 0 0 0-.096-.481Zm0-2.668a.351.351 0 0 0-.164.592.334.334 0 0 0 .248.092.335.335 0 0 0 .334-.334.35.35 0 0 0-.418-.35Zm0-2.65a.435.435 0 0 0-.435.433.433.433 0 0 0 .435.433.435.435 0 0 0 .435-.433.433.433 0 0 0-.435-.434Z" fill="#F90"/><path d="M35.72 76.068a.3.3 0 0 1-.317.317.318.318 0 0 1-.317-.317.333.333 0 0 1 .317-.317.318.318 0 0 1 .318.317Zm-.317 2.335a.234.234 0 0 0-.234.233.25.25 0 0 0 .234.25.251.251 0 0 0 .251-.25.25.25 0 0 0-.25-.233Zm0 2.634a.167.167 0 0 0-.167.167.166.166 0 0 0 .167.167.167.167 0 0 0 .167-.167.167.167 0 0 0-.167-.167Zm0 5.302s-.033-.016-.033 0h.033Zm2.608 0a.083.083 0 0 0 0 .084l.083-.084-.117-.066.034.066Zm0-2.65a.15.15 0 0 0-.107.255.15.15 0 0 0 .257-.106.15.15 0 0 0-.092-.222.151.151 0 0 0-.092.005l.034.067Zm-.034-2.702a.217.217 0 1 0 0 .435.217.217 0 0 0 0-.435ZM80 59.845l-4.563-3.002-.218-.15-.685-.45-1.822 2.768a1.538 1.538 0 0 1-.418.383l.134.084-1.672 2.484a1.668 1.668 0 0 1-.651-.634 1.486 1.486 0 0 1-.72.634 1.254 1.254 0 0 1 .72.767l-2.558.817-2.04.667a1.318 1.318 0 0 1-.5-1.017 1.265 1.265 0 0 1 .935-1.234 1.405 1.405 0 0 1-.952-.934 1.318 1.318 0 0 1-1.39.921 1.322 1.322 0 0 1-1.185-1.17 1.25 1.25 0 0 1-1.253 1.116 1.273 1.273 0 0 1-1.19-.778 1.282 1.282 0 0 1 .905-1.74 1.322 1.322 0 0 1-1.036-1.016 1.3 1.3 0 0 1-1.254.983 1.289 1.289 0 0 1-1.303-1.284 1.315 1.315 0 0 1 .936-1.25 1.389 1.389 0 0 1-.953-.9 1.318 1.318 0 0 1-1.204.9 1.255 1.255 0 0 1 1.204 1.274 1.249 1.249 0 0 1-1.254 1.226 1.256 1.256 0 0 1-1.253-1.226 1.249 1.249 0 0 1 1.203-1.274 1.306 1.306 0 0 1-1.27-1.134 1.266 1.266 0 0 1-.842 1 1.272 1.272 0 0 1-1.634-.851 1.264 1.264 0 0 1 .938-1.583 1.322 1.322 0 0 1-1.036-1 1.3 1.3 0 0 1-1.43.999 1.305 1.305 0 0 1-1.145-1.316 1.331 1.331 0 0 1 .92-1.25 1.354 1.354 0 0 1-.92-.901 1.334 1.334 0 0 1-1.22.9 1.256 1.256 0 0 1 1.204 1.25 1.249 1.249 0 0 1-.978 1.193 1.256 1.256 0 0 1-1.396-.659l2.357-3.584a.7.7 0 0 1 .1-.234l.1-.167a1.67 1.67 0 0 1 .485-.416l-.05-.05 1.672-2.451c.164.117.306.264.418.433a1.2 1.2 0 0 1 .418-.45 1.786 1.786 0 0 1-.435-.434c-.078.125-.18.233-.3.317l2.373-3.618-1.99-1.317.084-.1a1.268 1.268 0 0 1-.15-.15l-.134.116-3.36-2.067L74.668 34l.92 4.469c-.07.13-.161.248-.268.35.09-.091.19-.17.3-.234L80 59.845ZM51.483 49.14c.276.152.497.385.636.667.114-.278.32-.507.585-.65a1.469 1.469 0 0 1-.585-.567c-.162.234-.38.423-.636.55Zm1.405 2.568a1.388 1.388 0 0 1-.77-.734 1.351 1.351 0 0 1-.885.734 1.32 1.32 0 0 1 .886.917 1.365 1.365 0 0 1 .769-.917Zm1.705-10.271.1.1.083-.1a.203.203 0 0 1-.083 0h-.1Zm-.134 2.567c.08.064.153.137.217.217l.217-.217a.567.567 0 0 1-.2-.2c-.07.075-.15.142-.234.2Zm-.134 2.585c.142.094.267.213.368.35.089-.136.202-.255.334-.35a2.24 2.24 0 0 1-.35-.334 2.234 2.234 0 0 1-.352.334Zm-.167 2.568c.221.129.406.312.535.533.104-.217.266-.402.468-.533a1.785 1.785 0 0 1-.468-.467c-.137.197-.32.358-.535.467Zm-.184 2.55c.324.146.58.408.719.734.12-.31.344-.57.635-.733a1.369 1.369 0 0 1-.635-.634 1.47 1.47 0 0 1-.719.634Zm1.555 2.569a1.354 1.354 0 0 1-.836-.818 1.352 1.352 0 0 1-.986.818 1.288 1.288 0 0 1 .986 1.05 1.315 1.315 0 0 1 .836-1.05Zm1.588-10.272.133.15.134-.15-.134-.116a.45.45 0 0 1-.133.116ZM57 46.59c.092.08.175.17.25.267l.251-.267s-.167-.15-.25-.25c-.071.095-.156.18-.251.25Zm-.168 2.568c.167.108.31.25.418.416.095-.16.22-.302.368-.416a1.67 1.67 0 0 1-.384-.384 1.47 1.47 0 0 1-.402.384Zm-.167 2.55c.25.14.454.348.585.6.116-.242.295-.45.519-.6-.22-.118-.4-.297-.519-.516-.14.22-.336.398-.568.517h-.017Zm1.287 2.585a1.47 1.47 0 0 1-.702-.684 1.403 1.403 0 0 1-.785.668 1.386 1.386 0 0 1 .785.833 1.368 1.368 0 0 1 .72-.817h-.018Zm1.756-7.703.183.183a.867.867 0 0 1 .168-.183l-.168-.167-.183.167Zm-.134 2.568c.117.088.218.195.3.316a1.37 1.37 0 0 1 .301-.316 1.666 1.666 0 0 1-.284-.3 1.788 1.788 0 0 1-.367.3h.05Zm-.15 2.55c.187.129.346.293.467.484.103-.185.245-.345.418-.467a2.075 2.075 0 0 1-.434-.416c-.132.172-.304.31-.502.4h.05Zm-.185 2.585c.287.135.517.365.652.65.12-.274.325-.502.585-.65a1.402 1.402 0 0 1-.585-.583 1.57 1.57 0 0 1-.702.583h.05Zm1.421 2.568a1.435 1.435 0 0 1-.769-.767 1.35 1.35 0 0 1-.902.75 1.305 1.305 0 0 1 .902.934 1.332 1.332 0 0 1 .72-.917h.05Zm1.655-10.255v.1l.1-.116-.1.017Zm-.134 2.552.218.216c.063-.08.136-.153.217-.216a1.336 1.336 0 0 1-.217-.15l-.218.15Zm-.133 2.567c.138.1.262.217.367.35.09-.136.203-.254.335-.35a2.234 2.234 0 0 1-.351-.333c-.1.128-.219.24-.351.333Zm-.2 2.568c.22.13.405.313.534.534.11-.214.27-.397.468-.534a1.787 1.787 0 0 1-.468-.467 1.67 1.67 0 0 1-.535.467Zm-.185 2.568c.323.138.58.395.719.717.12-.31.344-.57.635-.734a1.37 1.37 0 0 1-.635-.633c-.161.278-.399.504-.685.65h-.034Zm1.571 2.568a1.422 1.422 0 0 1-.852-.817 1.332 1.332 0 0 1-.986.8 1.288 1.288 0 0 1 .986 1.1 1.333 1.333 0 0 1 .886-1.083h-.034Zm1.555-10.271.15.133a.451.451 0 0 1 .251-.133l-.2-.15-.201.15Zm-.117 2.567c.097.08.187.17.267.267.07-.096.148-.186.234-.267a1.12 1.12 0 0 1-.234-.25 1.252 1.252 0 0 1-.217.25h-.05Zm-.15 2.568c.167.108.309.25.417.417.095-.161.22-.303.368-.417a1.67 1.67 0 0 1-.368-.383c-.099.148-.223.278-.367.383h-.05Zm-.168 2.551c.247.143.45.35.585.6.118-.242.304-.445.535-.583a1.753 1.753 0 0 1-.535-.517 1.535 1.535 0 0 1-.534.5h-.05Zm1.287 2.585a1.502 1.502 0 0 1-.702-.7 1.47 1.47 0 0 1-.785.7 1.27 1.27 0 0 1 .785.817 1.417 1.417 0 0 1 .753-.817h-.05Zm1.89-10.271s0-.034-.017 0h.016Zm-.134 2.567.183.184a.87.87 0 0 1 .168-.184.787.787 0 0 1-.168-.166.866.866 0 0 1-.2.166h.017Zm-.134 2.568c.118.093.224.2.317.317.081-.117.177-.224.285-.317a1.67 1.67 0 0 1-.285-.3c-.098.114-.21.215-.334.3h.017Zm-.15 2.568c.187.12.347.28.467.467.109-.18.25-.34.418-.467a1.42 1.42 0 0 1-.418-.417 1.87 1.87 0 0 1-.484.417h.016Zm-.251 2.568c.286.135.516.365.652.65.12-.274.324-.502.585-.65a1.403 1.403 0 0 1-.585-.584 1.57 1.57 0 0 1-.652.584Zm1.42 2.568a1.436 1.436 0 0 1-.768-.768 1.433 1.433 0 0 1-.903.767 1.255 1.255 0 0 1 .903.918 1.333 1.333 0 0 1 .819-.917h-.05Zm1.823-10.272.1.1v-.116l-.1.016Zm-.134 2.568c.086.063.164.136.234.217.058-.08.125-.153.2-.217a1.231 1.231 0 0 1-.2-.283l-.234.283Zm-.134 2.568c.146.096.272.22.368.367.084-.145.198-.27.334-.367a1.267 1.267 0 0 1-.334-.334 1.388 1.388 0 0 1-.435.334h.067Zm.836 2.568a1.554 1.554 0 0 1-.468-.417c-.137.197-.32.358-.535.467.225.124.41.309.535.533a1.45 1.45 0 0 1 .4-.583h.068Zm1.972-5.136c.049.04.094.085.134.133l.117-.133-.117-.117a.451.451 0 0 0-.2.117h.066Zm.385 2.568a1.187 1.187 0 0 1-.251-.25 1.25 1.25 0 0 1-.267.25c.097.08.186.17.267.267.05-.097.111-.187.184-.267h.067Zm4.847.1.084-.1a.2.2 0 0 0-.084-.083l-.1.083.1.1ZM32.83 81.087a.134.134 0 0 0-.134.117.133.133 0 0 0 .268 0 .133.133 0 0 0-.134-.117Zm2.574 2.635a.101.101 0 0 0-.092.061.1.1 0 0 0 .073.137.1.1 0 0 0 .12-.098.1.1 0 0 0-.046-.143c-.017-.007-.036-.01-.055-.007v.05Zm-2.574-5.236a.2.2 0 0 0-.2.2.2.2 0 0 0 .2.2.2.2 0 0 0 .2-.2.2.2 0 0 0-.2-.25v.05Zm23.184-13.623a.97.97 0 0 0-.986.984.983.983 0 0 0 1.679.691 1 1 0 0 0 .294-.69.982.982 0 0 0-.987-1.035v.05Zm-15.461 21.36a.117.117 0 0 0-.117.116.116.116 0 0 0 .117.134.118.118 0 0 0 .129-.08.116.116 0 0 0 .004-.054.116.116 0 0 0-.084-.113.117.117 0 0 0-.05-.003Zm2.574-15.874a.586.586 0 0 0-.492.904c.062.096.152.17.258.213l.752-.233a.581.581 0 0 0-.518-.884Zm0-5.285a.736.736 0 0 0-.719.733.716.716 0 0 0 .719.717.736.736 0 0 0 .735-.717.733.733 0 0 0-.735-.733Zm0-2.635a.803.803 0 0 0-.803.8.816.816 0 0 0 .803.8.803.803 0 0 0 .802-.8.782.782 0 0 0-.802-.8Zm-2.574 5.319a.62.62 0 0 0-.619.617.616.616 0 0 0 .619.617.62.62 0 0 0 .618-.617.616.616 0 0 0-.618-.617Zm0 13.189a.268.268 0 0 0-.19.456.268.268 0 0 0 .457-.19.266.266 0 0 0-.267-.266Zm0 2.635a.218.218 0 0 0-.201.2.2.2 0 0 0 .342.141.2.2 0 0 0-.065-.326.202.202 0 0 0-.076-.016Zm5.148-13.34a.67.67 0 0 0-.619.467l1.037-.333a.686.686 0 0 0-.418-.067v-.067Zm5.148-2.734a.803.803 0 0 0-.785.8.765.765 0 0 0 .384.684l1.137-.367a.632.632 0 0 0 0-.317.8.8 0 0 0-.736-.733v-.067ZM45.7 65.013a.787.787 0 0 0-.77.937.784.784 0 0 0 1.07.571.785.785 0 0 0 .486-.724.783.783 0 0 0-.786-.784Zm0-2.634a.855.855 0 0 0-.788.525.848.848 0 0 0 .622 1.16.854.854 0 0 0 1.018-.835.847.847 0 0 0-.518-.816.854.854 0 0 0-.334-.067v.033Zm5.148-8.07a1.222 1.222 0 0 0-1.127.751 1.214 1.214 0 0 0 .89 1.66 1.223 1.223 0 0 0 1.252-.518 1.215 1.215 0 0 0-.548-1.8 1.223 1.223 0 0 0-.467-.093Zm-7.722 13.339a.67.67 0 0 0-.669.667.666.666 0 0 0 .669.667.67.67 0 0 0 .668-.667.666.666 0 0 0-.668-.667Zm-2.574 10.605a.335.335 0 0 0-.328.398.333.333 0 0 0 .456.243.335.335 0 0 0 .206-.308.334.334 0 0 0-.334-.283v-.05ZM45.7 67.614a.703.703 0 0 0-.67.847.7.7 0 0 0 .96.498.701.701 0 0 0 .429-.645.7.7 0 0 0-.719-.65v-.05Zm0-7.937a.938.938 0 0 0-.865.576.931.931 0 0 0 .682 1.273.938.938 0 0 0 1.119-.915.932.932 0 0 0-.936-.884v-.05Zm.685-5.002-1.253 1.8c.16.098.346.15.535.15a1.106 1.106 0 0 0 1.048-.739 1.098 1.098 0 0 0-.363-1.228l.033.017Zm-8.357 23.693a.301.301 0 0 0-.285.284.283.283 0 0 0 .285.283.269.269 0 0 0 .267-.172.266.266 0 0 0 .017-.111.282.282 0 0 0-.206-.294.285.285 0 0 0-.129-.006l.05.016Zm5.098-18.591h-.15l-.703 1.067a.885.885 0 0 0 1.405.275.882.882 0 0 0 .267-.475.882.882 0 0 0-.82-.867Zm-2.875 4.135a.654.654 0 0 0 .3 0 .77.77 0 0 0 .77-.75.75.75 0 0 0-.251-.55l-.82 1.3Zm-4.915 7.453a.452.452 0 0 0 .452-.45.399.399 0 0 0-.017-.233l-.435.683Zm5.216-6.252a.686.686 0 0 0-.686.683.683.683 0 0 0 .686.684.686.686 0 0 0 .685-.684.683.683 0 0 0-.685-.683ZM30.255 81.136h-.084a.083.083 0 0 0 .168 0h-.084Zm2.574-5.335a.268.268 0 0 0-.262.318.266.266 0 0 0 .364.195.267.267 0 0 0-.102-.513Zm2.574-2.685a.385.385 0 0 0-.377.458.383.383 0 0 0 .524.28.384.384 0 0 0-.147-.738Zm5.149 2.568a.402.402 0 0 0-.402.4.4.4 0 0 0 .402.4.401.401 0 0 0 .417-.4.416.416 0 0 0-.417-.4Zm0-5.27a.535.535 0 0 0-.379.912.536.536 0 0 0 .913-.378.532.532 0 0 0-.534-.533Zm7.254 8.238a.6.6 0 0 0 0 .183l.435-.65a.47.47 0 0 0-.435.45v.017Zm-7.254-5.636a.486.486 0 0 0-.485.484.483.483 0 0 0 .67.446.485.485 0 0 0 .157-.788.485.485 0 0 0-.342-.142Zm3.543-14.906-.635.9a.97.97 0 0 0 .635-.9Zm1.672-1.034a1.02 1.02 0 0 0-1.02 1.017 1.016 1.016 0 0 0 1.02 1.017 1.021 1.021 0 0 0 1.02-1.017 1.016 1.016 0 0 0-1.02-1.017Zm5.148 7.836a.872.872 0 0 0-.808.547.863.863 0 0 0-.061.337.866.866 0 0 0 .87.867.87.87 0 0 0 .602-1.517.886.886 0 0 0-.67-.234h.067ZM48.341 54.36a1.173 1.173 0 0 0-1.081.72 1.164 1.164 0 0 0 .853 1.592 1.173 1.173 0 0 0 1.2-.496c.13-.192.198-.418.198-.649a1.148 1.148 0 0 0-.766-1.103 1.157 1.157 0 0 0-.47-.064h.066ZM38.044 67.798a.538.538 0 0 0-.384.15l-.15.217a.837.837 0 0 0 0 .2.566.566 0 0 0 .679.556.568.568 0 0 0 .205-1.028.57.57 0 0 0-.316-.095h-.034Zm7.723 10.421a.418.418 0 0 0-.418.417.433.433 0 0 0 .418.434.435.435 0 0 0 .434-.434.432.432 0 0 0-.501-.417h.067Zm0-2.651a.519.519 0 0 0-.502.5.5.5 0 0 0 .502.5.485.485 0 0 0 .501-.5.5.5 0 0 0-.568-.5h.067Zm0 5.286a.352.352 0 0 0-.351.35.367.367 0 1 0 .719 0 .35.35 0 0 0-.435-.35h.067Zm-2.641-5.17a.453.453 0 0 0-.443.539.45.45 0 0 0 .818.162.45.45 0 0 0-.375-.7Zm0 5.27a.335.335 0 0 0-.318.317.316.316 0 0 0 .318.316.301.301 0 0 0 .317-.317.317.317 0 0 0-.317-.383v.067Zm7.722-18.608a.972.972 0 0 0-.895.597.965.965 0 0 0 .706 1.318.972.972 0 0 0 1.159-.948.966.966 0 0 0-.97-.967Zm-7.722 15.907a.385.385 0 0 0-.272.654.385.385 0 0 0 .656-.271.383.383 0 0 0-.384-.383Zm0 5.285a.235.235 0 0 0-.234.234.25.25 0 0 0 .234.25.251.251 0 0 0 .25-.25.25.25 0 0 0-.25-.234Zm12.887-24.044a1.173 1.173 0 0 0-1.093.71 1.164 1.164 0 0 0 .842 1.6 1.172 1.172 0 0 0 1.405-1.142 1.165 1.165 0 0 0-1.154-1.168ZM37.977 70.433a.502.502 0 0 0-.501.5.5.5 0 0 0 .501.5.502.502 0 0 0 .502-.5.5.5 0 0 0-.502-.5Zm10.297-5.453a.821.821 0 0 0-.745.516.816.816 0 0 0 .608 1.104.82.82 0 0 0 .973-.803.815.815 0 0 0-.836-.817Zm-10.297 8.087a.435.435 0 0 0-.434.434.433.433 0 0 0 .6.4.434.434 0 0 0-.166-.834ZM48.274 57.01a1.089 1.089 0 0 0-1.004.669 1.082 1.082 0 0 0 .792 1.478 1.09 1.09 0 0 0 1.116-.461 1.082 1.082 0 0 0-.904-1.686ZM37.977 75.685a.352.352 0 0 0-.35.35.35.35 0 0 0 .599.248.35.35 0 0 0-.249-.598Zm10.297-16.057a1.004 1.004 0 0 0-.986 1 1 1 0 0 0 .995.872 1.004 1.004 0 0 0 .994-.872 1 1 0 0 0-1.003-.967v-.033Zm0 2.668a.904.904 0 0 0-.903.9.9.9 0 0 0 .903.9.906.906 0 0 0 .834-.555.9.9 0 0 0-.834-1.245Zm0 5.285a.754.754 0 0 0-.695.463.75.75 0 0 0 .983.98.752.752 0 0 0 .464-.692.75.75 0 0 0-.752-.717v-.034Zm7.74-5.452a1.072 1.072 0 0 0-.989.659 1.065 1.065 0 0 0 .78 1.455 1.072 1.072 0 0 0 1.278-1.047 1.066 1.066 0 0 0-1.07-1.034v-.033Zm-2.525-5.236a1.206 1.206 0 0 0-1.112.741 1.198 1.198 0 0 0 .878 1.637 1.205 1.205 0 0 0 1.09-2.031 1.187 1.187 0 0 0-.856-.347Zm0 7.97a.938.938 0 0 0-.918 1.116.932.932 0 0 0 .736.734.938.938 0 0 0 1.118-.916.932.932 0 0 0-.936-.934Zm0-5.302a1.104 1.104 0 0 0-1.103 1.1 1.1 1.1 0 0 0 1.103 1.101 1.105 1.105 0 0 0 1.104-1.1 1.1 1.1 0 0 0-1.104-1.1Zm0 2.651a1.022 1.022 0 0 0-.93.64 1.015 1.015 0 0 0 .754 1.376 1.022 1.022 0 0 0 1.213-.999 1.015 1.015 0 0 0-1.037-1.017Zm-2.574-2.6a1.055 1.055 0 0 0-1.033 1.255 1.05 1.05 0 0 0 1.436.765 1.053 1.053 0 0 0 .319-1.738 1.054 1.054 0 0 0-.789-.283h.067Zm0-2.652a1.138 1.138 0 0 0-1.136 1.134 1.133 1.133 0 0 0 1.136 1.134 1.138 1.138 0 0 0 1.137-1.134 1.132 1.132 0 0 0-1.137-1.134Zm2.574 10.554a.837.837 0 0 0-.835.85l1.537-.483a.852.852 0 0 0-.702-.367Zm5.165-2.767a1.055 1.055 0 0 0-1.053 1.05 1.032 1.032 0 0 0 .435.85l1.672-.516c.017-.11.017-.223 0-.334a1.047 1.047 0 0 0-.697-.99 1.056 1.056 0 0 0-.424-.06h.067Zm0-5.303a1.222 1.222 0 0 0-1.22 1.218 1.216 1.216 0 0 0 .754 1.124 1.224 1.224 0 0 0 1.663-.887 1.214 1.214 0 0 0-.519-1.25 1.223 1.223 0 0 0-.678-.205Zm5.149 2.551a1.239 1.239 0 0 0-1.237 1.234 1.232 1.232 0 0 0 1.237 1.234 1.239 1.239 0 0 0 1.237-1.234 1.232 1.232 0 0 0-1.237-1.233Zm-.92 3.102 1.254-.4a1.07 1.07 0 0 0-.334 0 1.156 1.156 0 0 0-.986.4h.066Zm-4.229-3.001a1.138 1.138 0 0 0-1.136 1.133 1.132 1.132 0 0 0 1.136 1.134 1.138 1.138 0 0 0 1.137-1.134 1.132 1.132 0 0 0-1.137-1.133ZM42.674 73.5a.517.517 0 0 0 .519.516.503.503 0 0 0 .501-.367l-.819-.55a.518.518 0 0 0-.267.4h.067ZM61.23 62.044a1.19 1.19 0 0 0-1.097.731 1.181 1.181 0 0 0 .865 1.614 1.19 1.19 0 0 0 1.218-.503 1.182 1.182 0 0 0-.579-1.771 1.189 1.189 0 0 0-.474-.07h.067Zm0 2.652a1.104 1.104 0 0 0-1.12 1.1.713.713 0 0 0 0 .184l2.072-.667a1.101 1.101 0 0 0-1.02-.617h.068Z" fill="#FF303A"/><path d="M43.46 103.047a.702.702 0 0 1-.968.646.682.682 0 0 1-.42-.646.683.683 0 0 1 .686-.684.697.697 0 0 1 .495.194.688.688 0 0 1 .207.49Zm-.702 1.95a.618.618 0 1 0 .702.701.632.632 0 0 0-.702-.701Zm0-5.285a.754.754 0 0 0-.769.767.76.76 0 0 0 .22.553.778.778 0 0 0 .549.231.787.787 0 0 0 .786-.784.772.772 0 0 0-.231-.549.769.769 0 0 0-.555-.218Zm0 7.953a.549.549 0 0 0-.438.116.533.533 0 0 0 .438.935.533.533 0 1 0 0-1.051Zm0 5.303a.35.35 0 1 0 0 .7.35.35 0 0 0 0-.7Zm-.485-19.242a.904.904 0 0 0 .485.117 1.072 1.072 0 0 0 1.086-1.068 1.114 1.114 0 0 0-.4-.833l-1.17 1.784Zm.485 16.674a.452.452 0 1 0 .173.884.452.452 0 0 0-.173-.884Zm2.574-18.692a1.156 1.156 0 0 0-1.065.71 1.149 1.149 0 0 0 .84 1.57 1.156 1.156 0 0 0 1.379-1.13 1.147 1.147 0 0 0-.692-1.138 1.157 1.157 0 0 0-.462-.095v.083Zm-4.279 3.935-.334.5a.917.917 0 0 0 .334-.583v.083Zm-.87 1.551h-.166l-.619.934a.8.8 0 0 0 1.037.61.801.801 0 0 0 .18-1.437.804.804 0 0 0-.431-.124v.017Zm2.575-2.734a.971.971 0 0 0-.896.597.965.965 0 0 0 .707 1.318.972.972 0 0 0 1.158-.948.965.965 0 0 0-.969-1.05v.083Zm0 2.667a.87.87 0 0 0-.63.834.865.865 0 0 0 .63.834.869.869 0 0 0 .455-1.356.87.87 0 0 0-.455-.312Zm-2.641 18.575a.207.207 0 0 0-.153.052.2.2 0 0 0-.064.148.216.216 0 1 0 .418-.08.2.2 0 0 0-.201-.12Zm5.148-.117a.322.322 0 0 0-.308.192.333.333 0 0 0 .545.361.333.333 0 0 0 .098-.236.315.315 0 0 0-.267-.333l-.068.016Zm0-21.259a1.038 1.038 0 0 0-.945.65 1.032 1.032 0 0 0 .766 1.399 1.038 1.038 0 0 0 1.232-1.015 1.033 1.033 0 0 0-.986-1.05l-.067.016Zm9.628 16.374c0 .186.072.366.201.5l.786-1.184a.558.558 0 0 0-.251 0 .738.738 0 0 0-.736.684Zm-14.776 2.318a.3.3 0 0 0-.295.358.298.298 0 0 0 .236.236.304.304 0 0 0 .309-.127.298.298 0 0 0-.25-.467Zm35.27-22.71-4.463-2.952-6.085 9.171a1.782 1.782 0 0 1-.234-.267 1.806 1.806 0 0 1-.501.434c.154.085.285.205.384.35l-2.44 3.652a.152.152 0 0 0 0-.084c.009.055.009.112 0 .167l-.418.634a1.24 1.24 0 0 1-.803.283 1.27 1.27 0 0 1-1.27-1.267 1.282 1.282 0 0 1 .986-1.234 1.373 1.373 0 0 1-1.036-1 1.3 1.3 0 0 1-1.254.967 1.306 1.306 0 0 1-1.262-1.106 1.298 1.298 0 0 1 .878-1.429 1.39 1.39 0 0 1-.936-.883 1.317 1.317 0 0 1-1.441.892 1.322 1.322 0 0 1-1.133-1.26 1.247 1.247 0 0 1-.78 1.073 1.257 1.257 0 0 1-1.676-.812 1.247 1.247 0 0 1 .364-1.274c.174-.157.39-.262.62-.304a1.339 1.339 0 0 1-1.103-1.017 1.284 1.284 0 0 1-1.542.908 1.287 1.287 0 0 1-.959-1.509 1.284 1.284 0 0 1 .83-.95 1.371 1.371 0 0 1-.97-.916 1.301 1.301 0 0 1-1.253.9 1.322 1.322 0 0 1-1.32-1.3 1.25 1.25 0 0 1-1.908 1.043 1.219 1.219 0 0 1-.45-.51l2.792-4.235.184-.117 1.671-2.534c.134.098.252.216.351.35.082-.126.184-.239.301-.334a1.898 1.898 0 0 1-.401-.417l4.847-7.303-4.546-2.984 7.371-2.368.184.15-.134-.167 7.773-2.468h.1v-.083l8.542-2.734 2.14 24.844Zm-27.965-1.284a1.389 1.389 0 0 1-.836-.817 1.318 1.318 0 0 1-1.103.817 1.255 1.255 0 0 1 1.103 1.217 1.315 1.315 0 0 1 .836-1.217Zm1.203-2.568c.222.135.406.325.535.55.114-.215.274-.403.468-.55a1.503 1.503 0 0 1-.468-.45 1.67 1.67 0 0 1-.535.4v.05Zm1.22 2.568a1.436 1.436 0 0 1-.685-.65c-.146.289-.388.519-.685.65a1.253 1.253 0 0 1 .769.817c.094-.336.308-.627.601-.817Zm1.672-5.119c.075.064.143.137.2.217.064-.08.137-.153.218-.217a1.134 1.134 0 0 1-.2-.2l-.218.2Zm-.184 2.551c.158.107.294.243.401.4.09-.15.21-.28.351-.383a2.54 2.54 0 0 1-.367-.367c-.105.127-.236.23-.385.3v.05Zm-.2 2.568c.255.144.464.358.601.617.115-.248.294-.46.518-.617a1.67 1.67 0 0 1-.518-.5 1.672 1.672 0 0 1-.602.5Zm1.337 2.584a1.502 1.502 0 0 1-.736-.733 1.4 1.4 0 0 1-.886.717 1.32 1.32 0 0 1 .886.917 1.333 1.333 0 0 1 .736-.95v.05Zm1.721-7.703.117.1.1-.117-.1-.1-.117.117Zm-.15 2.568c.101.076.191.166.267.267.07-.097.148-.186.234-.267l-.234-.25-.267.25Zm-.184 2.55c.183.122.337.281.451.468.097-.18.234-.334.402-.45a1.521 1.521 0 0 1-.402-.4c-.13.15-.282.278-.45.383Zm-.217 2.585c.298.131.537.37.668.667.12-.278.325-.512.585-.667a1.67 1.67 0 0 1-.585-.583 1.67 1.67 0 0 1-.668.533v.05Zm1.52 2.501a1.455 1.455 0 0 1-.818-.783 1.366 1.366 0 0 1-1.02.783 1.255 1.255 0 0 1 1.02 1.15 1.348 1.348 0 0 1 .819-1.15Zm1.522-7.686.167.15a.567.567 0 0 1 .134-.15 1.01 1.01 0 0 1-.134-.134l-.167.134Zm-.117 2.6c.122.09.229.196.318.318.085-.114.18-.22.284-.317a1.672 1.672 0 0 1-.335-.334 1.786 1.786 0 0 1-.267.334Zm-.2 2.569c.219.118.399.298.518.517.112-.202.266-.378.45-.517a1.67 1.67 0 0 1-.45-.45c-.143.172-.32.313-.519.416v.034Zm1.17 2.55a1.486 1.486 0 0 1-.652-.633c-.172.29-.437.514-.753.634a1.337 1.337 0 0 1 .753.783c.108-.343.34-.634.651-.817v.034Zm1.704-5.118.218.217c.052-.08.114-.153.184-.217l-.184-.183c-.065.07-.138.13-.218.183Zm-.167 2.551c.149.106.278.236.385.383.088-.14.201-.265.334-.366a2.239 2.239 0 0 1-.334-.35 1.45 1.45 0 0 1-.385.3v.033Zm-.2 2.568c.25.138.453.347.585.6.11-.246.29-.455.518-.6a1.353 1.353 0 0 1-.518-.5 1.537 1.537 0 0 1-.585.466v.034Zm1.303 2.55a1.503 1.503 0 0 1-.718-.716 1.317 1.317 0 0 1-.853.7 1.321 1.321 0 0 1 .853.9 1.334 1.334 0 0 1 .718-.883Zm1.756-7.67.1.1.1-.116h-.083l-.117.017Zm-.084 2.535c.097.075.187.159.267.25.07-.09.148-.175.235-.25l-.234-.233c-.082.086-.171.165-.268.233Zm-.167 2.551c.177.116.325.27.434.45.102-.165.232-.312.385-.433a1.67 1.67 0 0 1-.385-.383 1.536 1.536 0 0 1-.518.366h.084Zm-.217 2.585c.286.135.516.365.651.65.12-.274.325-.502.586-.65a1.469 1.469 0 0 1-.586-.567 1.437 1.437 0 0 1-.735.567h.084Zm1.454 2.551a1.404 1.404 0 0 1-.803-.767 1.385 1.385 0 0 1-.952.767 1.253 1.253 0 0 1 .953 1.05 1.348 1.348 0 0 1 .718-1.05h.084Zm1.538-7.687c.058.041.109.092.15.15a.518.518 0 0 1 .117-.15.768.768 0 0 0-.117-.116l-.15.116Zm.434 2.568a1.151 1.151 0 0 1-.284-.283 2.423 2.423 0 0 1-.3.283c.115.083.217.184.3.3.086-.108.181-.208.284-.3Zm-19.557 18.792a.422.422 0 0 0-.387.261.416.416 0 0 0 .316.566.421.421 0 0 0 .427-.191.417.417 0 0 0-.356-.636Zm0-13.34a.837.837 0 0 0-.836.834.835.835 0 1 0 1.427-.59.837.837 0 0 0-.59-.243Zm0 2.652a.757.757 0 0 0-.695.463.747.747 0 0 0 .163.817.754.754 0 0 0 1.158-.113.752.752 0 0 0 .126-.417.75.75 0 0 0-.752-.617v-.133Zm0-5.32a.938.938 0 0 0-.918 1.117.934.934 0 0 0 1.276.68.934.934 0 0 0 .578-.863.934.934 0 0 0-.936-.867v-.066Zm0 10.622a.592.592 0 0 0-.413.171.578.578 0 0 0-.172.413.582.582 0 0 0 .585.583.583.583 0 0 0 .585-.583.587.587 0 0 0-.585-.517v-.067Zm0 2.651a.517.517 0 0 0-.501.5.5.5 0 0 0 .501.501.497.497 0 0 0 .36-.142.484.484 0 0 0 .142-.359.499.499 0 0 0-.502-.433v-.067Zm0-5.302a.671.671 0 0 0-.617.411.667.667 0 0 0 1.173.626.663.663 0 0 0 .113-.37.666.666 0 0 0-.669-.601v-.066Zm5.149 2.534a.703.703 0 0 0-.689.837.701.701 0 0 0 1.39-.136.7.7 0 0 0-.701-.634v-.067Zm0-2.651a.788.788 0 0 0-.726.484.783.783 0 0 0 1.026 1.024.79.79 0 0 0 .485-.724.785.785 0 0 0-.785-.717v-.067Zm0 5.319a.613.613 0 0 0-.502.138.619.619 0 0 0-.16.73.619.619 0 0 0 .662.349.612.612 0 0 0 .5-.138.62.62 0 0 0 .162-.73.62.62 0 0 0-.662-.349Zm0 5.286a.448.448 0 0 0-.417.278.448.448 0 0 0 .328.613.448.448 0 0 0 .54-.441.45.45 0 0 0-.451-.384v-.066Zm0-13.339a.869.869 0 0 0-.87.867.86.86 0 0 0 .249.623.866.866 0 0 0 .62.26.886.886 0 0 0 .887-.883.868.868 0 0 0-.886-.717v-.15Zm0-8.02a1.19 1.19 0 0 0-1.085.742 1.18 1.18 0 0 0 .876 1.603 1.19 1.19 0 0 0 1.213-.506c.13-.194.2-.422.2-.656a1.183 1.183 0 0 0-1.204-1.034v-.15Zm0 2.667a1.089 1.089 0 0 0-1.004.67 1.08 1.08 0 0 0 .792 1.477 1.09 1.09 0 0 0 1.115-.46c.12-.18.183-.389.183-.603a1.084 1.084 0 0 0-1.086-.934v-.15Zm2.574 10.688a.752.752 0 0 0-.752.751.765.765 0 0 0 .752.766.785.785 0 0 0 .769-.766.766.766 0 0 0-.77-.751Zm-2.574-7.853a.97.97 0 0 0-.97.967.981.981 0 0 0 .978 1.111.983.983 0 0 0 .978-1.111.961.961 0 0 0-.29-.69.968.968 0 0 0-.696-.277Zm-2.575 0a.905.905 0 0 0-.834.556.896.896 0 0 0 .658 1.227.904.904 0 0 0 1.079-.883.9.9 0 0 0-.903-.834v-.066Zm0 2.651a.82.82 0 0 0-.803.976.82.82 0 0 0 1.622-.159.815.815 0 0 0-.819-.75v-.067Zm0 2.668a.718.718 0 0 0-.718.717.734.734 0 0 0 1.454.15.728.728 0 0 0-.19-.563.74.74 0 0 0-.546-.238v-.066Zm0-10.672a1.121 1.121 0 0 0-1.12 1.118 1.116 1.116 0 0 0 1.12 1.117 1.121 1.121 0 0 0 1.12-1.117 1.116 1.116 0 0 0-1.12-1.118Zm0 2.668a1.02 1.02 0 0 0-1.002 1.017 1.016 1.016 0 0 0 1.01 1.147 1.022 1.022 0 0 0 .976-.72c.042-.138.054-.283.036-.427a1.016 1.016 0 0 0-1.02-.95v-.067Zm0-5.335a1.222 1.222 0 0 0-1.127.751 1.215 1.215 0 0 0 .89 1.66 1.223 1.223 0 0 0 1.252-.518c.134-.2.206-.436.206-.676a1.216 1.216 0 0 0-1.22-1.15v-.067Zm0 15.99a.65.65 0 1 0 .527 1.137.652.652 0 0 0 .17-.768.652.652 0 0 0-.697-.369Zm2.575 5.235a.552.552 0 0 0-.535.534.531.531 0 0 0 .535.534.537.537 0 0 0 .535-.534.533.533 0 0 0-.535-.467v-.067Zm5.148-16.09a1.222 1.222 0 0 0-1.115.763 1.215 1.215 0 0 0 .9 1.65 1.223 1.223 0 0 0 1.247-.521c.134-.2.205-.435.205-.675a1.216 1.216 0 0 0-1.237-1.15v-.067Zm0 2.668a1.122 1.122 0 0 0-1.035.69 1.115 1.115 0 0 0 .816 1.523 1.12 1.12 0 0 0 1.339-1.096 1.117 1.117 0 0 0-1.12-1.05v-.067Zm2.574-.083a1.205 1.205 0 0 0-1.112.74 1.197 1.197 0 0 0 .261 1.309 1.21 1.21 0 0 0 1.312.26 1.2 1.2 0 0 0 .743-1.109 1.182 1.182 0 0 0-1.204-1.134v-.066Zm0 5.352a.984.984 0 1 0 0 1.967l.92-1.383a.984.984 0 0 0-.92-.517v-.067Zm1.42-1.667a1.133 1.133 0 0 0 .352.833l1.27-1.901a1.143 1.143 0 0 0-.948.006 1.168 1.168 0 0 0-.673 1.212v-.15Zm-1.42-1.084a1.089 1.089 0 0 0-1.086 1.084 1.082 1.082 0 0 0 1.086 1.083 1.082 1.082 0 1 0 0-2.167Zm-2.574 0a1.02 1.02 0 0 0-1.02 1.017 1.015 1.015 0 0 0 1.02 1.017 1.02 1.02 0 0 0 1.02-1.017 1.02 1.02 0 0 0-1.02-1.017Zm-2.574 0a.955.955 0 0 0-.953.95.949.949 0 0 0 .953.951.956.956 0 0 0 .953-.951.95.95 0 0 0-.953-.95Zm0-2.668a1.054 1.054 0 0 0-1.033 1.255 1.05 1.05 0 0 0 .827.826 1.054 1.054 0 0 0 1.258-1.031 1.051 1.051 0 0 0-1.052-.767v-.283Zm0 10.655a.683.683 0 1 0 .293 1.333.69.69 0 0 0 .436-.372.683.683 0 0 0-.73-.961Zm0-5.303a.838.838 0 0 0-.836.834.829.829 0 0 0 .512.785.851.851 0 0 0 1.176-.785.834.834 0 0 0-.852-.55v-.284Zm2.574-.083a.918.918 0 1 0 0 1.834.914.914 0 0 0 .655-.264.892.892 0 0 0 .264-.653.924.924 0 0 0-.92-.634v-.283Zm-2.574-7.937a1.155 1.155 0 0 0-1.066.71 1.148 1.148 0 0 0 .84 1.569 1.156 1.156 0 0 0 1.38-1.128 1.15 1.15 0 0 0-1.154-.867v-.284Zm2.574 10.888a.819.819 0 0 0-.58 1.395.825.825 0 0 0 .893.177.822.822 0 0 0 .506-.755.82.82 0 0 0-.82-.817Zm-2.574 5.369a.601.601 0 0 0 0 1.184.526.526 0 0 0 .384-.15l.184-.284a.497.497 0 0 0 0-.166.6.6 0 0 0-.568-.584Zm-5.149-2.534a.57.57 0 0 0-.47.558.564.564 0 0 0 .47.559.58.58 0 0 0 .246-.011.58.58 0 0 0 .367-.308.568.568 0 0 0-.613-.798Zm-10.296 2.884a.234.234 0 1 0 0 .468.234.234 0 0 0 0-.468Zm-2.508-2.584a.268.268 0 0 0-.268.25.267.267 0 0 0 .458.189.267.267 0 0 0 .078-.189.267.267 0 0 0-.268-.25Zm2.575-8.02a.585.585 0 0 0-.585.567.582.582 0 0 0 .585.583.583.583 0 0 0 .585-.583.582.582 0 0 0-.652-.567h.067Zm0 7.953a.32.32 0 0 0-.318.317.313.313 0 0 0 .093.224.317.317 0 0 0 .542-.224.318.318 0 0 0-.384-.317h.067Zm0-2.651a.421.421 0 0 0-.427.494.415.415 0 0 0 .333.332.412.412 0 0 0 .245-.028.413.413 0 0 0 .25-.398.398.398 0 0 0-.294-.391.394.394 0 0 0-.174-.009h.067Zm-2.575 5.369a.162.162 0 0 0-.069.008.16.16 0 0 0-.06.035.164.164 0 0 0-.055.124c0 .048.02.095.054.129a.182.182 0 0 0 .26 0 .182.182 0 0 0 .054-.129.163.163 0 0 0-.055-.124.159.159 0 0 0-.06-.035c-.022-.008-.045-.01-.069-.008Zm5.015-2.768a.388.388 0 0 0-.322.077.389.389 0 0 0-.142.298.38.38 0 0 0 .142.298.379.379 0 0 0 .322.077.38.38 0 0 0 .427-.21.382.382 0 0 0-.257-.538.388.388 0 0 0-.17-.002Zm-2.507-5.252a.503.503 0 0 0-.502.483.523.523 0 0 0 .502.501.503.503 0 0 0 .484-.501.484.484 0 0 0-.484-.483Zm2.574 0a.549.549 0 0 0-.541.657.55.55 0 0 0 .752.401.549.549 0 0 0 .34-.508.549.549 0 0 0-.618-.617l.067.067Zm-.067-2.768a.634.634 0 1 0-.001 1.267.634.634 0 0 0 .001-1.267Zm0 5.302a.484.484 0 0 0-.468.467.47.47 0 0 0 .289.432.477.477 0 0 0 .358 0 .47.47 0 0 0 .289-.432.483.483 0 0 0-.468-.417v-.05Zm-2.507 8.037a.155.155 0 0 0-.084.025.152.152 0 0 0-.064.154c.006.03.02.056.041.077a.152.152 0 0 0 .164.033.16.16 0 0 0 .068-.055.152.152 0 0 0-.019-.19.151.151 0 0 0-.106-.044Zm-.218-14.64a.47.47 0 0 0 .218 0 .67.67 0 0 0 .668-.667.648.648 0 0 0-.184-.45l-.702 1.117Zm2.792-1.334a.72.72 0 0 0-.705.857.716.716 0 0 0 .565.564.716.716 0 0 0 .859-.703.717.717 0 0 0-.786-.684l.067-.034Zm-5.082 16.074a.098.098 0 0 0-.05-.013.098.098 0 0 0-.05.013.1.1 0 0 0 .1.1.101.101 0 0 0 .06-.034.103.103 0 0 0 .024-.066h-.084Zm12.871-.3a.384.384 0 0 0-.384.384.378.378 0 0 0 .106.282.384.384 0 0 0 .278.118.401.401 0 0 0 .261-.706.392.392 0 0 0-.328-.078h.067Zm0-2.651a.483.483 0 0 0 0 .95.484.484 0 0 0 0-.95Zm-15.378-4.385a.302.302 0 0 0 .217-.284l-.217.284Zm10.163 7.236a.268.268 0 0 0-.19.456.268.268 0 0 0 .38-.378.268.268 0 0 0-.19-.078Zm-7.656-10.521a.436.436 0 0 0-.434.433.433.433 0 0 0 .742.307.433.433 0 0 0-.308-.74Zm-2.64 8.02a.117.117 0 1 0 .082.199.116.116 0 0 0 0-.165.117.117 0 0 0-.083-.034Zm2.64-5.369a.35.35 0 1 0 .351.35.368.368 0 0 0-.35-.35Zm-2.574 2.718a.207.207 0 0 0-.153.052.203.203 0 0 0-.065.148.218.218 0 0 0 .218.217.204.204 0 0 0 .19-.135.203.203 0 0 0 .01-.082.201.201 0 0 0-.08-.172.201.201 0 0 0-.188-.028h.068Z" fill="#58D4E7"/></g><defs><clipPath id="a"><path fill="#fff" transform="translate(0 34)" d="M0 0h80v82.286H0z"/></clipPath></defs></svg>