<svg xmlns="http://www.w3.org/2000/svg" width="521" height="150" fill="none"><path fill="#fff" d="M140.348 86.772q0 1.406-.498 3.017a8.5 8.5 0 0 1-1.582 2.988q-1.084 1.377-2.842 2.315-1.758.908-4.307.908h-28.916a3.9 3.9 0 0 1-1.523-.293 4 4 0 0 1-1.23-.791 4 4 0 0 1-.792-1.23 3.9 3.9 0 0 1-.293-1.524V57.826q0-.79.293-1.494.293-.703.791-1.23a3.8 3.8 0 0 1 1.231-.82 3.9 3.9 0 0 1 1.523-.294h25.488q1.407 0 3.018.498t2.988 1.612q1.406 1.084 2.315 2.842.937 1.757.937 4.306v1.436q0 2.02-.674 4.365-.673 2.315-2.168 4.394 1.29.791 2.403 1.905a12 12 0 0 1 1.992 2.578q.85 1.464 1.348 3.31.498 1.845.498 4.073zm-7.618-1.465q0-1.494-.468-2.666a5.9 5.9 0 0 0-1.319-2.051 5.56 5.56 0 0 0-2.05-1.29q-1.202-.468-2.696-.468h-17.168v-7.676h13.741q1.494 0 2.695-.44a5.9 5.9 0 0 0 2.051-1.318 5.6 5.6 0 0 0 1.289-2.021q.468-1.201.468-2.695v-1.436q0-1.64-1.582-1.64h-21.709v26.777h25.137q.206 0 .498-.03t.528-.175q.234-.147.41-.498.175-.352.175-.967zM191.09 79.008q0 3.838-1.319 7.06-1.317 3.223-3.662 5.567-2.344 2.343-5.566 3.662-3.193 1.29-6.973 1.289h-10.312q-3.78 0-7.002-1.29-3.223-1.318-5.567-3.661-2.343-2.344-3.691-5.567-1.318-3.222-1.318-7.06V70.98q0-3.81 1.318-7.032 1.348-3.252 3.691-5.566 2.344-2.344 5.567-3.662 3.222-1.32 7.002-1.319h10.312q3.78 0 6.973 1.319 3.222 1.319 5.566 3.662 2.345 2.314 3.662 5.566 1.319 3.223 1.319 7.032zm-7.617-8.027q0-2.256-.733-4.073-.703-1.845-2.021-3.135-1.29-1.318-3.135-2.021-1.817-.733-4.014-.733h-10.312q-2.227 0-4.072.733a8.9 8.9 0 0 0-3.135 2.021q-1.319 1.29-2.051 3.135-.703 1.817-.703 4.073v8.027q0 2.255.703 4.101a9.3 9.3 0 0 0 2.051 3.135 9.5 9.5 0 0 0 3.135 2.022q1.845.702 4.072.703h10.254q2.226 0 4.043-.703 1.845-.734 3.164-2.022a8.9 8.9 0 0 0 2.021-3.135q.733-1.845.733-4.101zM242.711 79.008q0 3.838-1.318 7.06-1.319 3.223-3.663 5.567-2.344 2.343-5.566 3.662-3.193 1.29-6.973 1.289h-10.312q-3.78 0-7.002-1.29-3.223-1.318-5.566-3.661t-3.692-5.567q-1.318-3.222-1.318-7.06V70.98q0-3.81 1.318-7.032 1.348-3.252 3.692-5.566 2.343-2.344 5.566-3.662 3.222-1.32 7.002-1.319h10.312q3.78 0 6.973 1.319 3.222 1.319 5.566 3.662 2.344 2.314 3.663 5.566 1.317 3.223 1.318 7.032zm-7.617-8.027q0-2.256-.733-4.073-.702-1.845-2.021-3.135-1.29-1.318-3.135-2.021-1.817-.733-4.014-.733h-10.312q-2.227 0-4.072.733a8.9 8.9 0 0 0-3.135 2.021q-1.319 1.29-2.051 3.135-.703 1.817-.703 4.073v8.027q0 2.255.703 4.101a9.3 9.3 0 0 0 2.051 3.135 9.5 9.5 0 0 0 3.135 2.022q1.845.702 4.072.703h10.254q2.226 0 4.043-.703 1.845-.734 3.164-2.022a8.9 8.9 0 0 0 2.021-3.135q.733-1.845.733-4.101zM287.623 61.606h-16.787V96h-7.617V61.606h-16.817v-7.618h41.221zM333.619 83.637q0 2.256-.586 4.072-.557 1.787-1.494 3.164t-2.197 2.344a13.5 13.5 0 0 1-2.608 1.582 13 13 0 0 1-2.754.908q-1.377.293-2.607.293h-29.385v-7.617h29.385q2.198 0 3.398-1.29 1.231-1.288 1.231-3.456 0-1.055-.322-1.934a4.35 4.35 0 0 0-.938-1.523 3.9 3.9 0 0 0-1.465-.996q-.85-.352-1.904-.352h-17.519q-1.846 0-3.985-.644a12.3 12.3 0 0 1-3.984-2.14q-1.817-1.464-3.047-3.837-1.201-2.373-1.201-5.8 0-3.429 1.201-5.772 1.23-2.374 3.047-3.838 1.845-1.495 3.984-2.139 2.139-.675 3.985-.674h25.927v7.618h-25.927q-2.169 0-3.399 1.318-1.201 1.318-1.201 3.486 0 2.197 1.201 3.487 1.23 1.26 3.399 1.26h17.578q1.23.029 2.607.35a12.2 12.2 0 0 1 2.725.938q1.377.645 2.607 1.64 1.23.969 2.168 2.345.967 1.376 1.523 3.164.558 1.787.557 4.043M377.447 61.606H360.66V96h-7.617V61.606h-16.816v-7.618h41.22zM422.828 96h-7.617V85.688h-26.777V96h-7.618V74.994q0-4.599 1.582-8.467 1.582-3.867 4.395-6.65 2.813-2.782 6.65-4.336 3.838-1.553 8.379-1.553h17.168a3.84 3.84 0 0 1 2.725 1.114q.527.527.82 1.23.293.704.293 1.494zm-34.394-17.93h26.777V61.606h-13.389q-.351 0-1.494.117-1.113.087-2.607.498-1.465.41-3.106 1.26-1.64.849-3.017 2.343t-2.286 3.75q-.878 2.227-.878 5.42zM469.322 96h-27.48q-1.055 0-2.285-.234a13 13 0 0 1-2.403-.791 11.7 11.7 0 0 1-2.256-1.348 10 10 0 0 1-1.933-2.021q-.82-1.202-1.319-2.754-.498-1.583-.498-3.545V64.682q0-1.055.235-2.256.263-1.23.791-2.403.526-1.2 1.377-2.285a9.4 9.4 0 0 1 2.021-1.904 10 10 0 0 1 2.754-1.348q1.553-.498 3.516-.498h27.48v7.618h-27.48q-1.494 0-2.285.79-.792.793-.791 2.344v20.567q0 1.464.791 2.285.82.79 2.285.79h27.48zM520.562 96h-10.81l-17.139-17.168h-5.361v-7.676h5.361l17.139-17.168h10.81l-21.591 21.006zm-36.357 0h-7.617V53.988h7.617z"/><path fill="#F90" d="M14.008 72.684a1 1 0 0 1-.631.912 1.006 1.006 0 0 1-1.357-.74 1 1 0 0 1 .43-1.022 1.004 1.004 0 0 1 1.558.85m-1.003-3.669a1.12 1.12 0 0 0-1.035.69 1.115 1.115 0 0 0 .816 1.523 1.12 1.12 0 0 0 1.15-.475 1.116 1.116 0 0 0-.931-1.738m0 8.02a.804.804 0 0 0-.786.8.78.78 0 0 0 .786.784.786.786 0 0 0 .785-.783.8.8 0 0 0-.785-.817zm-2.207-5.952a1.05 1.05 0 0 0 .669-.967zm2.207 3.335a.905.905 0 0 0-.846.544.898.898 0 0 0 .646 1.238.905.905 0 0 0 1.085-.882.9.9 0 0 0-.885-.967zM10.43 71.75l-.802 1.2a.93.93 0 0 0 .886.634.936.936 0 0 0 .811-.926.93.93 0 0 0-.811-.925zm0 7.987a.67.67 0 0 0-.651.65.65.65 0 0 0 1.1.448.63.63 0 0 0 .187-.448.65.65 0 0 0-.636-.65m0 5.335a.453.453 0 0 0-.442.538.45.45 0 1 0 .442-.538m0-2.668a.552.552 0 0 0-.54.658.55.55 0 0 0 .752.4.55.55 0 0 0 .34-.507.55.55 0 0 0-.552-.6zm0-5.319a.737.737 0 0 0-.72.877.733.733 0 0 0 1.002.535.734.734 0 0 0-.282-1.412m2.575 2.602a.703.703 0 0 0-.689.836.7.7 0 0 0 .957.51.7.7 0 0 0 .38-.914.7.7 0 0 0-.648-.433m9.227-1.868a1.05 1.05 0 0 0 .35.784l1.17-1.768a1 1 0 0 0-.45-.1 1.09 1.09 0 0 0-1.07 1.084m-8.458-11.238-1.354 2.034a1.222 1.222 0 0 0 1.686-1.6 1.3 1.3 0 0 0-.333-.434m18.938 3.451-3.109-2.05-2.173 3.334q-.178-.152-.3-.35a1.4 1.4 0 0 1-.636.534c.205.108.382.262.518.45l-2.373 3.585a1 1 0 0 1 0-.234 1.266 1.266 0 0 1 .969-1.234 1.35 1.35 0 0 1-1.036-.983 1.3 1.3 0 0 1-1.431.931 1.305 1.305 0 0 1-1.127-1.281 1.32 1.32 0 0 1 .903-1.234 1.4 1.4 0 0 1-.92-.867 1.37 1.37 0 0 1-1.253.867 1.34 1.34 0 0 1-1.32-1.15 1.27 1.27 0 0 1-.832 1.008 1.274 1.274 0 0 1-1.643-.833 1.264 1.264 0 0 1 .92-1.593 1.36 1.36 0 0 1-1.02-1 1.3 1.3 0 0 1-.902.917 1.306 1.306 0 0 1-1.604-.867 1.297 1.297 0 0 1 .835-1.618 1.42 1.42 0 0 1-.82-.684l3.56-5.369-3.108-2.05 16.28-5.22zM16.966 58.627l-.15-.15-.15.15.15.15zm-.685 5.12c.236.138.427.34.551.583.1-.234.269-.432.485-.567a1.7 1.7 0 0 1-.501-.484 1.3 1.3 0 0 1-.535.467m1.254 2.567a1.47 1.47 0 0 1-.703-.684 1.4 1.4 0 0 1-.852.684 1.29 1.29 0 0 1 .852.884 1.38 1.38 0 0 1 .703-.884m1.638-5.119q.12.097.217.217l.2-.217-.2-.2zm-.184 2.568c.167.108.31.25.418.417.088-.16.208-.302.35-.417a2.5 2.5 0 0 1-.367-.367 1.4 1.4 0 0 1-.401.367m-.218 2.551c.278.141.501.37.636.65.117-.265.308-.49.551-.65-.23-.13-.421-.32-.551-.55a1.45 1.45 0 0 1-.636.55m1.421 2.568a1.42 1.42 0 0 1-.785-.767 1.42 1.42 0 0 1-.953.767 1.27 1.27 0 0 1 .953 1.034 1.33 1.33 0 0 1 .785-1.034m1.672-7.687.1.1.117-.133-.1-.084a.4.4 0 0 1-.117.117m-.134 2.568q.154.124.267.283.106-.158.251-.283l-.25-.25q-.122.138-.268.25m-.2 2.551c.192.128.353.3.467.5.103-.19.246-.354.418-.483a2 2 0 0 1-.418-.434c-.131.177-.303.32-.501.417zm1.103 2.585a1.67 1.67 0 0 1-.636-.618 1.4 1.4 0 0 1-.702.6c.33.147.588.416.72.751.1-.306.308-.567.584-.734zm1.788-5.136.15.167.151-.167-.15-.133zm-.167 2.568q.19.136.318.333.139-.185.317-.333l-.317-.3a1.8 1.8 0 0 1-.351.3zm-.217 2.567c.235.132.427.329.551.567.1-.234.269-.432.485-.567-.2-.124-.37-.288-.501-.483-.145.207-.341.373-.569.483zm1.253 2.552a1.47 1.47 0 0 1-.702-.684 1.4 1.4 0 0 1-.835.684 1.3 1.3 0 0 1 .835.883 1.38 1.38 0 0 1 .669-.883zm1.822-7.687.084-.1s-.1.067-.117.1zm-.167 2.568q.114.096.2.216l.201-.216-.2-.2zm.585 2.567a1.7 1.7 0 0 1-.384-.366 1.3 1.3 0 0 1-.385.367q.237.173.402.416c.084-.158.198-.3.334-.416zm2.307-2.584v-.083l-.134.1.117.1zm2.457 2.751.15-.166-.133-.134-.167.133zM17.518 85.522a.61.61 0 0 0 .184.45l.702-1.05h-.251a.636.636 0 0 0-.635.6m-4.513-3.168a.62.62 0 0 0-.607.738.617.617 0 0 0 .843.45.62.62 0 0 0 .382-.57.633.633 0 0 0-.618-.618m0 2.668a.52.52 0 0 0-.509.618.516.516 0 0 0 .707.377.52.52 0 0 0 .32-.478.516.516 0 0 0-.518-.534zm0 2.651a.435.435 0 0 0-.308.74.435.435 0 0 0 .742-.306.43.43 0 0 0-.434-.45zm0 2.668a.335.335 0 0 0-.291.41.334.334 0 0 0 .658-.06.333.333 0 0 0-.367-.367zm-.251 2.901a.3.3 0 0 0 0 .15l.25-.383a.25.25 0 0 0-.25.217zm2.825-13.606a.77.77 0 0 0-.71.474.766.766 0 0 0 .56 1.046.77.77 0 0 0 .919-.753.783.783 0 0 0-.77-.783zm0-2.65a.854.854 0 0 0-.836 1.016.85.85 0 0 0 .67.668.854.854 0 0 0 1.018-.834.85.85 0 0 0-.852-.867zm0 5.318a.67.67 0 0 0-.656.797.667.667 0 0 0 .912.486.67.67 0 0 0 .412-.616.666.666 0 0 0-.668-.617zm0-10.688a1.09 1.09 0 0 0-1.016.658 1.08 1.08 0 0 0 .78 1.488A1.09 1.09 0 0 0 16.65 72.7a1.066 1.066 0 0 0-1.07-1.1zm0-2.684a1.21 1.21 0 0 0-1.124.73 1.198 1.198 0 0 0 .866 1.646 1.21 1.21 0 0 0 1.24-.507c.134-.198.204-.43.205-.669a1.183 1.183 0 0 0-1.187-1.217zm0 5.369a.97.97 0 0 0-.896.597.965.965 0 0 0 .707 1.318.972.972 0 0 0 1.09-1.323.97.97 0 0 0-.901-.609zM10.43 90.374a.285.285 0 0 0-.262.175.283.283 0 0 0 .371.37.28.28 0 0 0 .176-.261.3.3 0 0 0-.285-.284m0 2.668a.185.185 0 0 0-.18.22.183.183 0 1 0 .18-.22m0 2.668a.1.1 0 0 0-.1.084.1.1 0 0 0 .1.1.1.1 0 0 0 0-.1v-.1zm5.149-8.103a.486.486 0 0 0-.476.578.483.483 0 0 0 .879.174.482.482 0 0 0-.403-.752m0-2.668a.586.586 0 0 0-.574.697.583.583 0 0 0 .798.425.584.584 0 0 0-.224-1.122m-5.149 2.784a.37.37 0 0 0-.36.439.367.367 0 0 0 .501.267.367.367 0 0 0-.14-.706M20.727 76.82a1.005 1.005 0 0 0-.927.617.998.998 0 0 0 .732 1.364 1.005 1.005 0 0 0 1.198-.981 1 1 0 0 0-1.003-1m0-5.37a1.24 1.24 0 0 0-1.143.762 1.23 1.23 0 0 0 .902 1.683 1.24 1.24 0 0 0 1.27-.525 1.232 1.232 0 0 0-1.029-1.92m0 8.054a.887.887 0 0 0-.886.884.88.88 0 0 0 .886.883h.1l.753-1.15a.88.88 0 0 0-.853-.617m2.574-5.486a1.204 1.204 0 0 0-1.062 1.193 1.2 1.2 0 0 0 1.062 1.192 1.204 1.204 0 0 0 1.062-1.192 1.2 1.2 0 0 0-1.062-1.193m-2.574.084a1.12 1.12 0 0 0-1.12 1.117 1.116 1.116 0 0 0 1.12 1.117 1.12 1.12 0 0 0 1.12-1.117 1.116 1.116 0 0 0-1.12-1.084zm-2.574-2.585a1.17 1.17 0 0 0-1.093.71 1.165 1.165 0 0 0 .842 1.6 1.17 1.17 0 0 0 1.206-.492c.13-.193.198-.419.198-.65a1.15 1.15 0 0 0-1.153-1.168m0 10.705a.736.736 0 0 0-.735.734.733.733 0 0 0 .735.733.737.737 0 0 0 .735-.733.733.733 0 0 0-.735-.734m-7.723-7.803a.837.837 0 0 0-.835.833.833.833 0 0 0 .835.834.837.837 0 0 0 .836-.834.833.833 0 0 0-.836-.834m7.723 2.467a.92.92 0 0 0-.854.578.9.9 0 0 0-.065.356.9.9 0 0 0 .564.852.9.9 0 0 0 .355.065.92.92 0 0 0 .936-.917.93.93 0 0 0-.936-.934m0-2.684a1.055 1.055 0 0 0-.985.637 1.048 1.048 0 0 0 .757 1.442 1.055 1.055 0 0 0 1.264-1.029 1.05 1.05 0 0 0-1.036-1.05m0 5.369a.82.82 0 0 0-.803.976.82.82 0 0 0 .643.642.82.82 0 0 0 .979-.801.816.816 0 0 0-.82-.817M7.856 82.454a.52.52 0 0 0-.501.5.5.5 0 0 0 .501.484.485.485 0 0 0 .502-.483.5.5 0 0 0-.502-.5m0 5.336a.301.301 0 0 0-.212.512.301.301 0 0 0 .425-.424.3.3 0 0 0-.213-.088m-2.574 2.718a.15.15 0 0 0-.15.15.15.15 0 0 0 .15.15.15.15 0 0 0 .106-.256.15.15 0 0 0-.106-.044m2.574-10.705a.57.57 0 0 0-.585.584.583.583 0 0 0 .585.583.586.586 0 0 0 .585-.583.583.583 0 0 0-.585-.584m0-2.65a.67.67 0 0 0-.656.796.666.666 0 0 0 .912.486.67.67 0 0 0 .413-.616.666.666 0 0 0-.669-.667m0 7.97a.402.402 0 0 0-.393.477.4.4 0 0 0 .547.292.401.401 0 0 0-.154-.77m-.284-9.172q.142.027.284 0a.786.786 0 0 0 .77-.766.75.75 0 0 0-.268-.467zm.284 14.49a.218.218 0 0 0-.213.26.216.216 0 0 0 .296.157.217.217 0 0 0 .07-.353.22.22 0 0 0-.153-.064m0 2.668a.117.117 0 1 0 0 .233.117.117 0 0 0 0-.233m-2.574-13.24a.52.52 0 0 0-.508.619.517.517 0 0 0 .706.376.518.518 0 0 0-.198-.994m-2.574 8.038a.185.185 0 0 0-.18.219.183.183 0 0 0 .25.134.184.184 0 0 0-.07-.353m0 2.65a.1.1 0 1 0 0 .201.1.1 0 0 0 0-.2m0-5.318a.285.285 0 0 0-.284.283.283.283 0 0 0 .485.2.283.283 0 0 0-.201-.483m0-1.918a.37.37 0 0 0 .368-.366.5.5 0 0 0 0-.15zM.134 87.957A.134.134 0 0 0 0 88.09a.134.134 0 1 0 .134-.133m5.148-.117a.25.25 0 0 0-.246.299.25.25 0 0 0 .342.182.25.25 0 0 0-.096-.481m0-2.668a.35.35 0 0 0-.267.35.333.333 0 0 0 .35.334.335.335 0 0 0 .335-.334.35.35 0 0 0-.418-.35m0-2.65a.435.435 0 0 0-.435.433.433.433 0 0 0 .435.433.435.435 0 0 0 .435-.433.433.433 0 0 0-.435-.434"/><path fill="#FF303A" d="M35.72 76.068a.3.3 0 0 1-.317.317.32.32 0 0 1-.317-.317.333.333 0 0 1 .317-.317.32.32 0 0 1 .318.317m-.317 2.335a.234.234 0 0 0-.234.233.25.25 0 0 0 .234.25.25.25 0 0 0 .251-.25.25.25 0 0 0-.25-.233m0 2.634a.167.167 0 0 0-.167.167.166.166 0 0 0 .167.167.167.167 0 0 0 .167-.167.167.167 0 0 0-.167-.167m0 5.302s-.033-.016-.033 0zm2.608 0a.08.08 0 0 0 0 .084l.083-.084-.117-.066zm0-2.65a.15.15 0 0 0-.107.255.15.15 0 0 0 .257-.106.15.15 0 0 0-.092-.222.15.15 0 0 0-.092.005zm-.034-2.702a.217.217 0 1 0 0 .435.217.217 0 0 0 0-.435M80 59.845l-4.563-3.002-.218-.15-.685-.45-1.822 2.768a1.5 1.5 0 0 1-.418.383l.134.084-1.672 2.484a1.67 1.67 0 0 1-.651-.634 1.5 1.5 0 0 1-.72.634 1.25 1.25 0 0 1 .72.767l-2.558.817-2.04.667a1.32 1.32 0 0 1-.5-1.017 1.265 1.265 0 0 1 .935-1.234 1.4 1.4 0 0 1-.952-.934 1.32 1.32 0 0 1-1.39.921 1.32 1.32 0 0 1-1.185-1.17 1.25 1.25 0 0 1-1.253 1.116 1.27 1.27 0 0 1-1.19-.778 1.282 1.282 0 0 1 .905-1.74 1.32 1.32 0 0 1-1.036-1.016 1.3 1.3 0 0 1-1.254.983 1.29 1.29 0 0 1-1.303-1.284 1.315 1.315 0 0 1 .936-1.25 1.39 1.39 0 0 1-.953-.9 1.32 1.32 0 0 1-1.204.9 1.255 1.255 0 0 1 1.204 1.274 1.25 1.25 0 0 1-1.254 1.226 1.256 1.256 0 0 1-1.253-1.226 1.25 1.25 0 0 1 1.203-1.274 1.306 1.306 0 0 1-1.27-1.134 1.27 1.27 0 0 1-.842 1 1.27 1.27 0 0 1-1.634-.851 1.265 1.265 0 0 1 .938-1.583 1.32 1.32 0 0 1-1.036-1 1.3 1.3 0 0 1-1.43.999 1.305 1.305 0 0 1-1.145-1.316 1.33 1.33 0 0 1 .92-1.25 1.35 1.35 0 0 1-.92-.901 1.33 1.33 0 0 1-1.22.9 1.256 1.256 0 0 1 1.204 1.25 1.25 1.25 0 0 1-.978 1.193 1.256 1.256 0 0 1-1.396-.659l2.357-3.584a.7.7 0 0 1 .1-.234l.1-.167a1.7 1.7 0 0 1 .485-.416l-.05-.05 1.672-2.451c.164.117.306.264.418.433a1.2 1.2 0 0 1 .418-.45 1.8 1.8 0 0 1-.435-.434q-.118.19-.3.317l2.373-3.618-1.99-1.317.084-.1a1.3 1.3 0 0 1-.15-.15l-.134.116-3.36-2.067L74.668 34l.92 4.469q-.106.196-.268.35.135-.137.3-.234zM51.484 49.14c.275.152.496.385.635.667.114-.278.32-.507.585-.65a1.47 1.47 0 0 1-.585-.567c-.162.234-.38.423-.636.55m1.404 2.568a1.4 1.4 0 0 1-.77-.734 1.35 1.35 0 0 1-.885.734 1.32 1.32 0 0 1 .886.917 1.37 1.37 0 0 1 .769-.917m1.705-10.271.1.1.083-.1a.2.2 0 0 1-.083 0zm-.134 2.567q.12.097.217.217l.217-.217a.57.57 0 0 1-.2-.2q-.107.113-.234.2m-.134 2.585q.215.143.368.35.135-.206.334-.35a2.2 2.2 0 0 1-.35-.334 2.2 2.2 0 0 1-.352.334m-.167 2.568c.221.129.406.312.535.533.104-.217.266-.402.468-.533a1.8 1.8 0 0 1-.468-.467c-.137.197-.32.358-.535.467m-.184 2.55c.324.146.58.408.719.734.12-.31.344-.57.635-.733a1.37 1.37 0 0 1-.635-.634 1.47 1.47 0 0 1-.719.634m1.555 2.569a1.35 1.35 0 0 1-.836-.818 1.35 1.35 0 0 1-.986.818 1.29 1.29 0 0 1 .986 1.05 1.32 1.32 0 0 1 .836-1.05m1.588-10.272.133.15.134-.15-.134-.116a.5.5 0 0 1-.133.116M57 46.59q.138.12.25.267l.251-.267s-.167-.15-.25-.25q-.108.144-.251.25m-.168 2.568c.167.108.31.25.418.416.095-.16.22-.302.368-.416a1.7 1.7 0 0 1-.384-.384 1.5 1.5 0 0 1-.402.384m-.167 2.55c.25.14.454.348.585.6.116-.242.295-.45.519-.6-.22-.118-.4-.297-.519-.516-.14.22-.336.398-.568.517zm1.287 2.585a1.47 1.47 0 0 1-.702-.684 1.4 1.4 0 0 1-.785.668 1.39 1.39 0 0 1 .785.833 1.37 1.37 0 0 1 .72-.817zm1.756-7.703.183.183a.9.9 0 0 1 .168-.183l-.168-.167zm-.134 2.568q.176.133.3.316a1.4 1.4 0 0 1 .301-.316 1.7 1.7 0 0 1-.284-.3 1.8 1.8 0 0 1-.367.3zm-.15 2.55c.187.129.346.293.467.484.103-.185.245-.345.418-.467a2 2 0 0 1-.434-.416c-.132.172-.304.31-.502.4zm-.185 2.585c.287.135.517.365.652.65.12-.274.325-.502.585-.65a1.4 1.4 0 0 1-.585-.583 1.57 1.57 0 0 1-.702.583zm1.421 2.568a1.44 1.44 0 0 1-.769-.767 1.35 1.35 0 0 1-.902.75 1.3 1.3 0 0 1 .902.934 1.33 1.33 0 0 1 .72-.917zm1.655-10.254v.1l.1-.117zm-.134 2.55.218.217q.095-.12.217-.216a1.3 1.3 0 0 1-.217-.15zm-.133 2.568q.208.15.367.35.136-.205.335-.35a2.2 2.2 0 0 1-.351-.333q-.151.193-.351.333m-.2 2.568c.22.13.405.313.534.534.11-.214.27-.397.468-.534a1.8 1.8 0 0 1-.468-.467 1.7 1.7 0 0 1-.535.467m-.185 2.568c.323.138.58.395.719.717.12-.31.344-.57.635-.734a1.37 1.37 0 0 1-.635-.633c-.161.278-.399.504-.685.65zm1.571 2.568a1.42 1.42 0 0 1-.852-.817 1.33 1.33 0 0 1-.986.8 1.29 1.29 0 0 1 .986 1.1 1.33 1.33 0 0 1 .886-1.083zm1.555-10.271.15.133a.45.45 0 0 1 .251-.133l-.2-.15zm-.117 2.567q.146.12.267.267.105-.145.234-.267a1.1 1.1 0 0 1-.234-.25 1.3 1.3 0 0 1-.217.25zm-.15 2.568c.167.108.309.25.417.417.095-.161.22-.303.368-.417a1.7 1.7 0 0 1-.368-.383q-.15.224-.367.383zm-.168 2.551c.247.143.45.35.585.6.118-.242.304-.445.535-.583a1.75 1.75 0 0 1-.535-.517 1.54 1.54 0 0 1-.534.5zm1.287 2.585a1.5 1.5 0 0 1-.702-.7 1.47 1.47 0 0 1-.785.7 1.27 1.27 0 0 1 .785.817 1.42 1.42 0 0 1 .753-.817zm1.89-10.271s0-.034-.017 0zm-.134 2.567.183.184a.9.9 0 0 1 .168-.184.8.8 0 0 1-.168-.166.9.9 0 0 1-.2.166zm-.134 2.568q.177.14.317.317.122-.176.285-.317a1.7 1.7 0 0 1-.285-.3q-.147.172-.334.3zm-.15 2.568c.187.12.347.28.467.467.109-.18.25-.34.418-.467a1.4 1.4 0 0 1-.418-.417 1.9 1.9 0 0 1-.484.417zm-.251 2.568c.286.135.516.365.652.65.12-.274.324-.502.585-.65a1.4 1.4 0 0 1-.585-.584 1.57 1.57 0 0 1-.652.584m1.42 2.568a1.44 1.44 0 0 1-.768-.768 1.43 1.43 0 0 1-.903.767 1.25 1.25 0 0 1 .903.918 1.33 1.33 0 0 1 .819-.917zm1.823-10.272.1.1v-.116zm-.134 2.568q.129.095.234.217.087-.12.2-.217a1.2 1.2 0 0 1-.2-.283zm-.134 2.568c.146.096.272.22.368.367.084-.145.198-.27.334-.367a1.3 1.3 0 0 1-.334-.334 1.4 1.4 0 0 1-.435.334zm.836 2.568a1.6 1.6 0 0 1-.468-.417c-.137.197-.32.358-.535.467.225.124.41.309.535.533a1.45 1.45 0 0 1 .4-.583zm1.972-5.136q.074.06.134.133l.117-.133-.117-.117a.45.45 0 0 0-.2.117zm.385 2.568a1.2 1.2 0 0 1-.251-.25 1.3 1.3 0 0 1-.267.25q.145.12.267.267.075-.146.184-.267zm4.847.1.084-.1a.2.2 0 0 0-.084-.083l-.1.083zM32.83 81.087a.134.134 0 0 0-.134.117.133.133 0 0 0 .134.133.133.133 0 0 0 .134-.133.133.133 0 0 0-.134-.117m2.574 2.635a.1.1 0 0 0-.092.061.1.1 0 0 0 .073.137.1.1 0 0 0 .12-.098.1.1 0 0 0-.046-.143q-.026-.011-.055-.007zm-2.574-5.236a.2.2 0 0 0-.2.2.2.2 0 0 0 .2.2.2.2 0 0 0 .2-.2.2.2 0 0 0-.2-.25zm23.184-13.623a.97.97 0 0 0-.986.984.983.983 0 0 0 1.679.691 1 1 0 0 0 .294-.69.98.98 0 0 0-.987-1.035zm-15.461 21.36a.117.117 0 0 0-.117.116.116.116 0 0 0 .117.134.12.12 0 0 0 .129-.08.1.1 0 0 0 .004-.054.12.12 0 0 0-.084-.113.1.1 0 0 0-.05-.003m2.574-15.874a.586.586 0 0 0-.492.904c.062.096.152.17.258.213l.752-.233a.581.581 0 0 0-.518-.884m0-5.285a.736.736 0 0 0-.719.733.716.716 0 0 0 .719.717.736.736 0 0 0 .735-.717.733.733 0 0 0-.735-.733m0-2.635a.803.803 0 0 0-.803.8.816.816 0 0 0 .803.8.803.803 0 0 0 .802-.8.78.78 0 0 0-.802-.8m-2.574 5.319a.62.62 0 0 0-.619.617.616.616 0 0 0 .619.617.62.62 0 0 0 .618-.617.616.616 0 0 0-.618-.617m0 13.189a.267.267 0 0 0-.19.456.268.268 0 0 0 .457-.19.266.266 0 0 0-.267-.266m0 2.635a.22.22 0 0 0-.201.2.2.2 0 0 0 .342.141.2.2 0 0 0-.065-.326.2.2 0 0 0-.076-.016m5.148-13.34a.67.67 0 0 0-.619.467l1.037-.333a.7.7 0 0 0-.418-.067zm5.148-2.734a.803.803 0 0 0-.785.8.77.77 0 0 0 .384.684l1.137-.367a.63.63 0 0 0 0-.317.8.8 0 0 0-.736-.733zM45.7 65.013a.787.787 0 0 0-.77.937.784.784 0 0 0 1.07.571.785.785 0 0 0 .486-.724.783.783 0 0 0-.786-.784m0-2.634a.86.86 0 0 0-.788.525.848.848 0 0 0 .622 1.16.854.854 0 0 0 1.018-.835.85.85 0 0 0-.852-.883zm5.148-8.07a1.22 1.22 0 0 0-1.127.751 1.214 1.214 0 0 0 .89 1.66 1.22 1.22 0 0 0 1.252-.518 1.215 1.215 0 0 0-.548-1.8 1.2 1.2 0 0 0-.467-.093m-7.722 13.339a.67.67 0 0 0-.669.667.666.666 0 0 0 .669.667.67.67 0 0 0 .668-.667.666.666 0 0 0-.668-.667m-2.574 10.605a.335.335 0 0 0-.328.398.333.333 0 0 0 .456.243.34.34 0 0 0 .206-.308.334.334 0 0 0-.334-.283zM45.7 67.614a.703.703 0 0 0-.67.847.7.7 0 0 0 .96.498.7.7 0 0 0 .429-.645.7.7 0 0 0-.719-.65zm0-7.937a.94.94 0 0 0-.865.576.932.932 0 0 0 .682 1.273.938.938 0 0 0 1.119-.915.93.93 0 0 0-.936-.884zm.685-5.002-1.253 1.8c.16.098.346.15.535.15a1.11 1.11 0 0 0 1.048-.739 1.1 1.1 0 0 0-.363-1.228zm-8.357 23.693a.3.3 0 0 0-.285.284.283.283 0 0 0 .285.283.27.27 0 0 0 .267-.172.3.3 0 0 0 .017-.111.28.28 0 0 0-.206-.294.3.3 0 0 0-.129-.006zm5.098-18.591h-.15l-.703 1.067a.885.885 0 0 0 1.672-.2.88.88 0 0 0-.82-.867m-2.875 4.135a.65.65 0 0 0 .3 0 .77.77 0 0 0 .77-.75.75.75 0 0 0-.251-.55zm-4.915 7.453a.45.45 0 0 0 .452-.45.4.4 0 0 0-.017-.233zm5.216-6.252a.686.686 0 0 0-.686.683.683.683 0 0 0 .686.684.686.686 0 0 0 .685-.684.683.683 0 0 0-.685-.683m-10.38 16.023a.083.083 0 0 0 .166 0zm2.657-5.335a.268.268 0 0 0-.262.318.266.266 0 0 0 .364.195.27.27 0 0 0 .166-.247.266.266 0 0 0-.268-.266m2.574-2.685a.385.385 0 0 0-.377.458.383.383 0 0 0 .524.28.384.384 0 0 0-.147-.738m5.149 2.568a.4.4 0 0 0-.402.4.4.4 0 0 0 .402.4.4.4 0 0 0 .417-.4.416.416 0 0 0-.417-.4m0-5.27a.535.535 0 0 0-.379.912.536.536 0 0 0 .913-.378.533.533 0 0 0-.534-.533m7.254 8.238a.6.6 0 0 0 0 .183l.435-.65a.47.47 0 0 0-.435.45zm-7.254-5.636a.485.485 0 0 0-.485.484.483.483 0 0 0 .67.446.485.485 0 0 0 .157-.788.49.49 0 0 0-.342-.142m3.543-14.906-.635.9a.97.97 0 0 0 .635-.9m1.672-1.034a1.02 1.02 0 0 0-1.02 1.017 1.016 1.016 0 0 0 1.02 1.017 1.02 1.02 0 0 0 1.02-1.017 1.016 1.016 0 0 0-1.02-1.017m5.148 7.836a.87.87 0 0 0-.808.547.9.9 0 0 0-.061.337.866.866 0 0 0 .87.867.87.87 0 0 0 .602-1.517.89.89 0 0 0-.67-.234zM48.341 54.36a1.17 1.17 0 0 0-1.081.72 1.164 1.164 0 0 0 .853 1.592 1.17 1.17 0 0 0 1.2-.496c.13-.192.198-.418.198-.649a1.15 1.15 0 0 0-.766-1.103 1.2 1.2 0 0 0-.47-.064zM38.044 67.798a.54.54 0 0 0-.384.15l-.15.217a1 1 0 0 0 0 .2.566.566 0 0 0 .679.556.568.568 0 0 0 .205-1.028.57.57 0 0 0-.316-.095zm7.723 10.421a.42.42 0 0 0-.418.417.433.433 0 0 0 .418.434.437.437 0 0 0 .434-.434.432.432 0 0 0-.501-.417zm0-2.651a.52.52 0 0 0-.502.5.5.5 0 0 0 .502.5.484.484 0 0 0 .501-.5.5.5 0 0 0-.568-.5zm0 5.286a.35.35 0 0 0-.351.35.367.367 0 1 0 .719 0 .35.35 0 0 0-.435-.35zm-2.641-5.17a.453.453 0 0 0-.443.539.45.45 0 0 0 .818.162.45.45 0 0 0-.375-.7m0 5.27a.335.335 0 0 0-.318.317.316.316 0 0 0 .318.316.3.3 0 0 0 .317-.317.317.317 0 0 0-.317-.383zm7.722-18.608a.97.97 0 0 0-.895.597.965.965 0 0 0 .706 1.318.972.972 0 0 0 1.159-.948.966.966 0 0 0-.97-.967m-7.722 15.907a.385.385 0 0 0-.272.654.385.385 0 0 0 .656-.271.383.383 0 0 0-.384-.383m0 5.285a.235.235 0 0 0-.234.234.25.25 0 0 0 .234.25.25.25 0 0 0 .25-.25.25.25 0 0 0-.25-.234m12.887-24.044a1.17 1.17 0 0 0-1.093.71 1.164 1.164 0 0 0 .842 1.6 1.172 1.172 0 0 0 1.405-1.142 1.165 1.165 0 0 0-1.154-1.168M37.977 70.433a.5.5 0 0 0-.501.5.5.5 0 0 0 .501.5.5.5 0 0 0 .502-.5.5.5 0 0 0-.502-.5m10.297-5.453a.82.82 0 0 0-.745.516.816.816 0 0 0 .608 1.104.82.82 0 0 0 .973-.803.815.815 0 0 0-.836-.817m-10.297 8.087a.435.435 0 0 0-.434.434.433.433 0 0 0 .6.4.433.433 0 0 0-.166-.834M48.274 57.01a1.09 1.09 0 0 0-1.004.669 1.082 1.082 0 0 0 .792 1.478 1.09 1.09 0 0 0 1.116-.461 1.082 1.082 0 0 0-.904-1.686M37.977 75.685a.35.35 0 0 0-.35.35.35.35 0 0 0 .599.248.35.35 0 0 0-.249-.598m10.297-16.057a1.004 1.004 0 0 0-.986 1 1 1 0 0 0 .995.872 1.004 1.004 0 0 0 .994-.872 1 1 0 0 0-1.003-.967zm0 2.668a.904.904 0 0 0-.903.9.9.9 0 0 0 .903.9.91.91 0 0 0 .834-.555.9.9 0 0 0-.834-1.245m0 5.285a.75.75 0 0 0-.695.463.75.75 0 0 0 .983.98.75.75 0 0 0 .464-.692.75.75 0 0 0-.752-.717zm7.74-5.452a1.07 1.07 0 0 0-.989.659 1.065 1.065 0 0 0 .78 1.455 1.072 1.072 0 0 0 1.278-1.047 1.066 1.066 0 0 0-1.07-1.034zm-2.525-5.236a1.21 1.21 0 0 0-1.112.741 1.198 1.198 0 0 0 .878 1.637 1.205 1.205 0 0 0 1.09-2.031 1.19 1.19 0 0 0-.856-.347m0 7.97a.938.938 0 0 0-.918 1.116.93.93 0 0 0 .736.734.938.938 0 0 0 1.118-.916.93.93 0 0 0-.936-.934m0-5.302a1.104 1.104 0 0 0-1.103 1.1 1.1 1.1 0 0 0 1.103 1.101 1.105 1.105 0 0 0 1.104-1.1 1.1 1.1 0 0 0-1.104-1.1m0 2.651a1.02 1.02 0 0 0-.93.64 1.015 1.015 0 0 0 .754 1.376 1.022 1.022 0 0 0 1.213-.999 1.015 1.015 0 0 0-1.037-1.017m-2.574-2.6a1.055 1.055 0 0 0-1.033 1.255 1.05 1.05 0 0 0 1.436.765 1.053 1.053 0 0 0 .319-1.738 1.05 1.05 0 0 0-.789-.283zm0-2.652a1.14 1.14 0 0 0-1.136 1.134 1.133 1.133 0 0 0 1.136 1.134 1.14 1.14 0 0 0 1.137-1.134 1.13 1.13 0 0 0-1.137-1.134m2.574 10.554a.837.837 0 0 0-.835.85l1.537-.483a.85.85 0 0 0-.702-.367m5.165-2.767a1.055 1.055 0 0 0-1.053 1.05 1.03 1.03 0 0 0 .435.85l1.672-.516q.026-.166 0-.334a1.05 1.05 0 0 0-.697-.99 1.1 1.1 0 0 0-.424-.06zm0-5.303a1.22 1.22 0 0 0-1.22 1.218 1.22 1.22 0 0 0 .754 1.124 1.224 1.224 0 0 0 1.663-.887 1.21 1.21 0 0 0-.519-1.25 1.22 1.22 0 0 0-.678-.205m5.149 2.551a1.24 1.24 0 0 0-1.237 1.234 1.23 1.23 0 0 0 1.237 1.234 1.24 1.24 0 0 0 1.237-1.234 1.23 1.23 0 0 0-1.237-1.233m-.92 3.102 1.254-.4a1 1 0 0 0-.334 0 1.16 1.16 0 0 0-.986.4zm-4.229-3.001a1.14 1.14 0 0 0-1.136 1.133 1.13 1.13 0 0 0 1.136 1.134 1.14 1.14 0 0 0 1.137-1.134 1.13 1.13 0 0 0-1.137-1.133M42.674 73.5a.517.517 0 0 0 .519.516.5.5 0 0 0 .501-.367l-.819-.55a.52.52 0 0 0-.267.4zM61.23 62.045a1.19 1.19 0 0 0-1.097.731 1.18 1.18 0 0 0 .865 1.614 1.19 1.19 0 0 0 1.218-.503 1.182 1.182 0 0 0-.579-1.771 1.2 1.2 0 0 0-.474-.07zm0 2.652a1.104 1.104 0 0 0-1.12 1.1.7.7 0 0 0 0 .184l2.072-.667a1.1 1.1 0 0 0-1.02-.617z"/><path fill="#58D4E7" d="M43.46 103.047a.702.702 0 0 1-.968.646.68.68 0 0 1-.42-.646.683.683 0 0 1 .686-.684.7.7 0 0 1 .495.194.7.7 0 0 1 .207.49m-.702 1.95a.618.618 0 1 0 .702.701.632.632 0 0 0-.702-.701m0-5.285a.754.754 0 0 0-.769.767.76.76 0 0 0 .22.553.78.78 0 0 0 .549.231.787.787 0 0 0 .786-.784.77.77 0 0 0-.231-.549.77.77 0 0 0-.555-.218m0 7.953a.55.55 0 0 0-.437.116.533.533 0 0 0 .437.935.533.533 0 1 0 0-1.051m0 5.303a.351.351 0 1 0 0 .7.351.351 0 0 0 0-.7m-.485-19.242a.9.9 0 0 0 .485.117 1.07 1.07 0 0 0 1.086-1.068 1.11 1.11 0 0 0-.4-.833zm.485 16.674a.452.452 0 1 0 .173.884.452.452 0 0 0-.173-.884m2.574-18.692a1.16 1.16 0 0 0-1.065.71 1.148 1.148 0 0 0 .84 1.57 1.156 1.156 0 0 0 1.379-1.13 1.15 1.15 0 0 0-.692-1.138 1.2 1.2 0 0 0-.462-.095zm-4.279 3.935-.334.5a.92.92 0 0 0 .334-.583zm-.87 1.551h-.166l-.619.934a.8.8 0 0 0 1.037.61.801.801 0 0 0 .18-1.437.8.8 0 0 0-.431-.124zm2.575-2.734a.97.97 0 0 0-.896.597.965.965 0 0 0 .707 1.318.972.972 0 0 0 1.158-.948.965.965 0 0 0-.969-1.05zm0 2.667a.87.87 0 0 0-.63.834.865.865 0 0 0 .63.834.87.87 0 0 0 .455-1.356.87.87 0 0 0-.455-.312m-2.641 18.575a.2.2 0 0 0-.2.12.214.214 0 0 0 .047.233.216.216 0 0 0 .354-.233.2.2 0 0 0-.2-.12m5.148-.117a.32.32 0 0 0-.308.192.333.333 0 0 0 .545.361.33.33 0 0 0 .098-.236.315.315 0 0 0-.267-.333zm0-21.259a1.04 1.04 0 0 0-.945.65 1.032 1.032 0 0 0 .766 1.399 1.038 1.038 0 0 0 1.232-1.015 1.033 1.033 0 0 0-.986-1.05zm9.628 16.374c0 .186.072.366.201.5l.786-1.184a.6.6 0 0 0-.251 0 .74.74 0 0 0-.736.684m-14.776 2.318a.3.3 0 1 0 .25.467.298.298 0 0 0-.25-.467m35.27-22.71-4.463-2.952-6.085 9.171a2 2 0 0 1-.234-.267 1.8 1.8 0 0 1-.501.434c.154.085.285.205.384.35l-2.44 3.652a.15.15 0 0 0 0-.084q.014.083 0 .167l-.418.634a1.24 1.24 0 0 1-.803.283 1.27 1.27 0 0 1-1.27-1.267 1.28 1.28 0 0 1 .986-1.234 1.37 1.37 0 0 1-1.036-1 1.3 1.3 0 0 1-1.254.967 1.306 1.306 0 0 1-1.262-1.106 1.3 1.3 0 0 1 .878-1.429 1.39 1.39 0 0 1-.936-.883 1.32 1.32 0 0 1-1.441.892 1.32 1.32 0 0 1-1.133-1.26 1.25 1.25 0 0 1-.78 1.073 1.257 1.257 0 0 1-1.676-.812 1.25 1.25 0 0 1 .364-1.274c.174-.157.39-.262.62-.304a1.34 1.34 0 0 1-1.103-1.017 1.28 1.28 0 0 1-.89.895 1.29 1.29 0 0 1-1.577-.845 1.28 1.28 0 0 1 .796-1.6 1.37 1.37 0 0 1-.97-.917 1.3 1.3 0 0 1-1.253.9 1.32 1.32 0 0 1-1.32-1.3 1.25 1.25 0 0 1-1.908 1.043 1.2 1.2 0 0 1-.45-.51l2.792-4.235.184-.117 1.671-2.534q.202.148.351.35.124-.19.301-.334a1.9 1.9 0 0 1-.401-.417l4.847-7.303-4.546-2.984 7.371-2.368.184.15-.134-.167 7.773-2.468h.1v-.083l8.542-2.734zm-27.965-1.284a1.39 1.39 0 0 1-.836-.817 1.32 1.32 0 0 1-1.103.817 1.255 1.255 0 0 1 1.103 1.217 1.315 1.315 0 0 1 .836-1.217m1.203-2.568c.222.135.406.325.535.55.114-.215.274-.403.468-.55a1.5 1.5 0 0 1-.468-.45 1.7 1.7 0 0 1-.535.4zm1.22 2.568a1.44 1.44 0 0 1-.685-.65c-.146.289-.388.519-.685.65a1.25 1.25 0 0 1 .769.817c.094-.336.308-.627.601-.817m1.672-5.119q.114.096.2.217.096-.12.218-.217a1.1 1.1 0 0 1-.2-.2zm-.184 2.551q.239.162.401.4c.09-.15.21-.28.351-.383a2.5 2.5 0 0 1-.367-.367c-.105.127-.236.23-.385.3zm-.2 2.568c.255.144.464.358.601.617.115-.248.294-.46.518-.617a1.7 1.7 0 0 1-.518-.5 1.7 1.7 0 0 1-.602.5m1.337 2.584a1.5 1.5 0 0 1-.736-.733 1.4 1.4 0 0 1-.886.717 1.32 1.32 0 0 1 .886.917 1.33 1.33 0 0 1 .736-.95zm1.721-7.703.117.1.1-.117-.1-.1zm-.15 2.568q.152.115.267.267.105-.145.234-.267l-.234-.25zm-.184 2.55c.183.122.337.281.451.468a1.3 1.3 0 0 1 .402-.45 1.5 1.5 0 0 1-.402-.4q-.197.225-.45.383m-.217 2.585c.298.131.537.37.668.667.12-.278.325-.512.585-.667a1.7 1.7 0 0 1-.585-.583 1.67 1.67 0 0 1-.668.533zm1.52 2.501a1.46 1.46 0 0 1-.818-.783 1.37 1.37 0 0 1-1.02.783 1.255 1.255 0 0 1 1.02 1.15 1.35 1.35 0 0 1 .819-1.15m1.522-7.686.167.15a.6.6 0 0 1 .134-.15 1 1 0 0 1-.134-.134zm-.117 2.6q.184.135.318.318.128-.171.284-.317a1.7 1.7 0 0 1-.335-.334 1.8 1.8 0 0 1-.267.334m-.2 2.569c.219.118.399.298.518.517.112-.202.266-.378.45-.517a1.7 1.7 0 0 1-.45-.45c-.143.172-.32.313-.519.416zm1.17 2.55a1.5 1.5 0 0 1-.652-.633c-.172.29-.437.514-.753.634a1.34 1.34 0 0 1 .753.783c.108-.343.34-.634.651-.817zm1.704-5.118.218.217q.078-.12.184-.217l-.184-.183q-.098.104-.218.183m-.167 2.551q.224.16.385.383c.088-.14.201-.265.334-.366a2.2 2.2 0 0 1-.334-.35 1.5 1.5 0 0 1-.385.3zm-.2 2.568c.25.138.453.347.585.6.11-.246.29-.455.518-.6a1.35 1.35 0 0 1-.518-.5 1.54 1.54 0 0 1-.585.466zm1.303 2.55a1.5 1.5 0 0 1-.718-.716 1.32 1.32 0 0 1-.853.7 1.32 1.32 0 0 1 .853.9 1.33 1.33 0 0 1 .718-.883m1.756-7.67.1.1.1-.116h-.083zm-.084 2.535q.146.113.267.25.105-.136.235-.25l-.234-.233q-.123.13-.268.233m-.167 2.551c.177.116.325.27.434.45.102-.165.232-.312.385-.433a1.7 1.7 0 0 1-.385-.383 1.5 1.5 0 0 1-.518.366zm-.217 2.585c.286.135.516.365.651.65.12-.274.325-.502.586-.65a1.47 1.47 0 0 1-.586-.567 1.44 1.44 0 0 1-.735.567zm1.454 2.551a1.4 1.4 0 0 1-.803-.767 1.39 1.39 0 0 1-.952.767 1.25 1.25 0 0 1 .953 1.05 1.35 1.35 0 0 1 .718-1.05zm1.538-7.687q.088.062.15.15a.5.5 0 0 1 .117-.15.8.8 0 0 0-.117-.116zm.434 2.568a1.2 1.2 0 0 1-.284-.283 2.4 2.4 0 0 1-.3.283q.174.125.3.3.13-.162.284-.3m-19.557 18.792a.42.42 0 0 0-.387.261.416.416 0 0 0 .316.566.42.42 0 0 0 .427-.191.418.418 0 0 0-.356-.636m0-13.34a.837.837 0 0 0-.836.834.835.835 0 1 0 1.427-.59.84.84 0 0 0-.59-.243m0 2.652a.76.76 0 0 0-.695.463.748.748 0 0 0 .548 1.023.752.752 0 0 0 .9-.736.75.75 0 0 0-.753-.617zm0-5.32a.938.938 0 0 0-.918 1.117.934.934 0 0 0 1.276.68.93.93 0 0 0 .578-.863.934.934 0 0 0-.936-.867zm0 10.622a.6.6 0 0 0-.413.171.58.58 0 0 0-.172.413.58.58 0 0 0 .585.583.583.583 0 0 0 .585-.583.587.587 0 0 0-.585-.517zm0 2.651a.517.517 0 0 0-.501.5.5.5 0 0 0 .501.501.5.5 0 0 0 .36-.142.48.48 0 0 0 .142-.359.5.5 0 0 0-.502-.433zm0-5.302a.67.67 0 0 0-.617.411.668.668 0 1 0 1.286.256.666.666 0 0 0-.669-.601zm5.149 2.534a.703.703 0 0 0-.689.837.701.701 0 0 0 1.39-.136.7.7 0 0 0-.701-.634zm0-2.651a.79.79 0 0 0-.726.484.783.783 0 0 0 1.026 1.024.79.79 0 0 0 .485-.724.785.785 0 0 0-.785-.717zm0 5.319a.61.61 0 0 0-.502.138.62.62 0 0 0-.16.73.62.62 0 0 0 .662.349.61.61 0 0 0 .5-.138.62.62 0 0 0 .162-.73.62.62 0 0 0-.662-.349m0 5.286a.45.45 0 0 0-.417.278.448.448 0 0 0 .328.613.448.448 0 0 0 .54-.441.45.45 0 0 0-.451-.384zm0-13.339a.869.869 0 0 0-.87.867.86.86 0 0 0 .249.623.87.87 0 0 0 .62.26.886.886 0 0 0 .887-.883.87.87 0 0 0-.886-.717zm0-8.02a1.19 1.19 0 0 0-1.085.742 1.18 1.18 0 0 0 .876 1.603 1.19 1.19 0 0 0 1.213-.506c.13-.194.2-.422.2-.656a1.183 1.183 0 0 0-1.204-1.034zm0 2.667a1.09 1.09 0 0 0-1.004.67 1.08 1.08 0 0 0 .792 1.477 1.09 1.09 0 0 0 1.115-.46c.12-.18.183-.389.183-.603a1.084 1.084 0 0 0-1.086-.934zm2.574 10.688a.75.75 0 0 0-.752.751.765.765 0 0 0 .752.767.79.79 0 0 0 .769-.767.766.766 0 0 0-.77-.751m-2.574-7.853a.97.97 0 0 0-.97.967.98.98 0 0 0 .978 1.111.983.983 0 0 0 .978-1.111.96.96 0 0 0-.29-.69.97.97 0 0 0-.696-.277m-2.575 0a.91.91 0 0 0-.834.556.896.896 0 0 0 .658 1.227.904.904 0 0 0 1.079-.883.9.9 0 0 0-.903-.834zm0 2.651a.82.82 0 0 0-.803.976.82.82 0 0 0 1.622-.159.815.815 0 0 0-.819-.75zm0 2.668a.717.717 0 0 0-.718.717.734.734 0 0 0 1.454.15.73.73 0 0 0-.19-.563.74.74 0 0 0-.546-.238zm0-10.672a1.12 1.12 0 0 0-1.12 1.118 1.116 1.116 0 0 0 1.12 1.117 1.12 1.12 0 0 0 1.12-1.117 1.116 1.116 0 0 0-1.12-1.118m0 2.668a1.02 1.02 0 0 0-1.002 1.017 1.016 1.016 0 0 0 1.01 1.147 1.02 1.02 0 0 0 .976-.72c.042-.138.054-.283.036-.427a1.016 1.016 0 0 0-1.02-.95zm0-5.335a1.22 1.22 0 0 0-1.127.751 1.215 1.215 0 0 0 .89 1.66 1.22 1.22 0 0 0 1.252-.518c.134-.2.206-.435.206-.676a1.216 1.216 0 0 0-1.22-1.15zm0 15.99a.65.65 0 1 0 .527 1.137.65.65 0 0 0 .17-.768.65.65 0 0 0-.697-.369m2.575 5.235a.552.552 0 0 0-.535.534.53.53 0 0 0 .535.534.537.537 0 0 0 .535-.534.533.533 0 0 0-.535-.467zm5.148-16.09a1.22 1.22 0 0 0-1.115.763 1.215 1.215 0 0 0 .9 1.65 1.22 1.22 0 0 0 1.247-.521c.134-.2.205-.435.205-.675a1.216 1.216 0 0 0-1.237-1.15zm0 2.668a1.12 1.12 0 0 0-1.035.69 1.115 1.115 0 0 0 .816 1.523 1.12 1.12 0 0 0 1.339-1.096 1.117 1.117 0 0 0-1.12-1.05zm2.574-.083a1.205 1.205 0 0 0-1.112.74 1.2 1.2 0 0 0 .261 1.309 1.21 1.21 0 0 0 1.312.26 1.2 1.2 0 0 0 .743-1.109 1.18 1.18 0 0 0-1.204-1.134zm0 5.352a.984.984 0 1 0 0 1.967l.92-1.383a.98.98 0 0 0-.92-.517zm1.42-1.667a1.13 1.13 0 0 0 .352.833l1.27-1.901a1.14 1.14 0 0 0-.948.006 1.17 1.17 0 0 0-.673 1.212zm-1.42-1.084a1.09 1.09 0 0 0-1.086 1.084 1.08 1.08 0 0 0 1.086 1.083 1.082 1.082 0 1 0 0-2.167m-2.574 0a1.02 1.02 0 0 0-1.02 1.017 1.015 1.015 0 0 0 1.02 1.017 1.02 1.02 0 0 0 1.02-1.017 1.02 1.02 0 0 0-1.02-1.017m-2.574 0a.955.955 0 0 0-.953.95.95.95 0 0 0 .953.951.956.956 0 0 0 .953-.951.95.95 0 0 0-.953-.95m0-2.668a1.06 1.06 0 0 0-.973.648 1.048 1.048 0 0 0 .767 1.433 1.054 1.054 0 0 0 1.258-1.031 1.05 1.05 0 0 0-1.052-.767zm0 10.655a.683.683 0 1 0 .293 1.333.7.7 0 0 0 .436-.372.683.683 0 0 0-.73-.961m0-5.303a.84.84 0 0 0-.836.834.83.83 0 0 0 .512.785.851.851 0 0 0 1.176-.785.834.834 0 0 0-.852-.55zm2.574-.083a.918.918 0 1 0 0 1.834.91.91 0 0 0 .655-.264.9.9 0 0 0 .264-.653.924.924 0 0 0-.92-.634zm-2.574-7.937a1.155 1.155 0 0 0-1.066.71 1.148 1.148 0 0 0 .84 1.569 1.156 1.156 0 0 0 1.38-1.128 1.15 1.15 0 0 0-1.154-.867zm2.574 10.888a.819.819 0 0 0-.58 1.395.83.83 0 0 0 .893.177.82.82 0 0 0 .506-.755.82.82 0 0 0-.82-.817m-2.574 5.369a.601.601 0 0 0 0 1.184.53.53 0 0 0 .384-.15l.184-.284a.5.5 0 0 0 0-.166.6.6 0 0 0-.568-.584m-5.149-2.534a.57.57 0 0 0-.47.558.564.564 0 0 0 .47.559.6.6 0 0 0 .246-.011.58.58 0 0 0 .367-.308.568.568 0 0 0-.613-.798m-10.296 2.884a.234.234 0 1 0 0 .468.234.234 0 0 0 0-.468m-2.508-2.584a.268.268 0 0 0-.268.25.267.267 0 0 0 .458.189.27.27 0 0 0 .078-.189.267.267 0 0 0-.268-.25m2.575-8.02a.585.585 0 0 0-.585.567.58.58 0 0 0 .585.583.583.583 0 0 0 .585-.583.58.58 0 0 0-.652-.567zm0 7.953a.32.32 0 0 0-.318.317.31.31 0 0 0 .093.224q.045.044.103.069a.317.317 0 0 0 .44-.293.318.318 0 0 0-.385-.317zm0-2.651a.421.421 0 0 0-.427.494.415.415 0 0 0 .333.332.4.4 0 0 0 .245-.028.41.41 0 0 0 .25-.398.4.4 0 0 0-.294-.391.4.4 0 0 0-.174-.009zm-2.575 5.369a.2.2 0 0 0-.069.008.2.2 0 0 0-.06.035.164.164 0 0 0-.055.124c0 .048.02.095.054.129a.182.182 0 0 0 .26 0 .18.18 0 0 0 .054-.129.16.16 0 0 0-.055-.124.2.2 0 0 0-.06-.035q-.033-.011-.069-.008m5.015-2.768a.39.39 0 0 0-.322.077.39.39 0 0 0-.142.298.38.38 0 0 0 .142.298.38.38 0 0 0 .322.077.38.38 0 0 0 .427-.21.382.382 0 0 0-.257-.538.4.4 0 0 0-.17-.002m-2.507-5.252a.503.503 0 0 0-.502.483.52.52 0 0 0 .502.501.503.503 0 0 0 .484-.501.484.484 0 0 0-.484-.483m2.574 0a.55.55 0 0 0-.541.657.55.55 0 0 0 .752.401.55.55 0 0 0 .34-.508.55.55 0 0 0-.618-.617zm-.067-2.768a.634.634 0 1 0-.001 1.267.634.634 0 0 0 .001-1.267m0 5.302a.484.484 0 0 0-.468.467.47.47 0 0 0 .289.432.48.48 0 0 0 .358 0 .47.47 0 0 0 .289-.432.48.48 0 0 0-.468-.417zm-2.507 8.037a.16.16 0 0 0-.084.025.15.15 0 0 0-.064.154q.01.045.041.077a.152.152 0 0 0 .164.033.16.16 0 0 0 .068-.055.15.15 0 0 0-.019-.19.15.15 0 0 0-.106-.044m-.218-14.64a.5.5 0 0 0 .218 0 .67.67 0 0 0 .668-.667.65.65 0 0 0-.184-.45zm2.792-1.334a.72.72 0 0 0-.705.857.72.72 0 0 0 .565.564.716.716 0 0 0 .859-.703.717.717 0 0 0-.786-.684zm-5.082 16.074a.1.1 0 0 0-.05-.013.1.1 0 0 0-.05.013.1.1 0 0 0 .1.1.1.1 0 0 0 .06-.034.1.1 0 0 0 .024-.066zm12.871-.3a.384.384 0 0 0-.384.384.38.38 0 0 0 .106.282.38.38 0 0 0 .278.118.401.401 0 0 0 .261-.706.4.4 0 0 0-.328-.078zm0-2.651a.483.483 0 0 0 0 .95.484.484 0 0 0 0-.95m-15.378-4.385a.3.3 0 0 0 .217-.284zm10.163 7.236a.268.268 0 0 0-.19.456.268.268 0 0 0 .38-.378.27.27 0 0 0-.19-.078m-7.656-10.521a.436.436 0 0 0-.434.433.433.433 0 0 0 .742.307.433.433 0 0 0-.308-.74m-2.64 8.02a.117.117 0 1 0 .082.199.116.116 0 0 0 0-.165.12.12 0 0 0-.083-.034m2.64-5.369a.35.35 0 1 0 .351.35.37.37 0 0 0-.35-.35m-2.574 2.718a.2.2 0 0 0-.153.052.203.203 0 0 0-.065.148.22.22 0 0 0 .218.217.2.2 0 0 0 .19-.135.2.2 0 0 0 .01-.082.2.2 0 0 0-.08-.172.201.201 0 0 0-.188-.028z"/></svg>