<svg width="521" height="185" viewBox="0 0 521 185" fill="none" xmlns="http://www.w3.org/2000/svg">
<path d="M59.6172 105.926C59.6172 107.051 59.418 108.258 59.0195 109.547C58.6445 110.836 58.0117 112.031 57.1211 113.133C56.2539 114.234 55.1172 115.16 53.7109 115.91C52.3047 116.637 50.582 117 48.543 117H13.8438C13.1875 117 12.5781 116.883 12.0156 116.648C11.4531 116.414 10.9609 116.098 10.5391 115.699C10.1406 115.277 9.82422 114.785 9.58984 114.223C9.35547 113.66 9.23828 113.051 9.23828 112.395V71.1914C9.23828 70.5586 9.35547 69.9609 9.58984 69.3984C9.82422 68.8359 10.1406 68.3438 10.5391 67.9219C10.9609 67.5 11.4531 67.1719 12.0156 66.9375C12.5781 66.7031 13.1875 66.5859 13.8438 66.5859H44.4297C45.5547 66.5859 46.7617 66.7852 48.0508 67.1836C49.3398 67.582 50.5352 68.2266 51.6367 69.1172C52.7617 69.9844 53.6875 71.1211 54.4141 72.5273C55.1641 73.9336 55.5391 75.6562 55.5391 77.6953V79.418C55.5391 81.0352 55.2695 82.7812 54.7305 84.6562C54.1914 86.5078 53.3242 88.2656 52.1289 89.9297C53.1602 90.5625 54.1211 91.3242 55.0117 92.2148C55.9258 93.1055 56.7227 94.1367 57.4023 95.3086C58.082 96.4805 58.6211 97.8047 59.0195 99.2812C59.418 100.758 59.6172 102.387 59.6172 104.168V105.926ZM50.4766 104.168C50.4766 102.973 50.2891 101.906 49.9141 100.969C49.5391 100.008 49.0117 99.1875 48.332 98.5078C47.6523 97.8281 46.832 97.3125 45.8711 96.9609C44.9102 96.5859 43.832 96.3984 42.6367 96.3984H22.0352V87.1875H38.5234C39.7188 87.1875 40.7969 87.0117 41.7578 86.6602C42.7188 86.2852 43.5391 85.7578 44.2188 85.0781C44.8984 84.3984 45.4141 83.5898 45.7656 82.6523C46.1406 81.6914 46.3281 80.6133 46.3281 79.418V77.6953C46.3281 76.3828 45.6953 75.7266 44.4297 75.7266H18.3789V107.859H48.543C48.707 107.859 48.9062 107.848 49.1406 107.824C49.375 107.801 49.5859 107.73 49.7734 107.613C49.9609 107.496 50.125 107.297 50.2656 107.016C50.4062 106.734 50.4766 106.348 50.4766 105.855V104.168ZM120.508 96.6094C120.508 99.6797 119.98 102.504 118.926 105.082C117.871 107.66 116.406 109.887 114.531 111.762C112.656 113.637 110.43 115.102 107.852 116.156C105.297 117.188 102.508 117.703 99.4844 117.703H87.1094C84.0859 117.703 81.2852 117.188 78.707 116.156C76.1289 115.102 73.9023 113.637 72.0273 111.762C70.1523 109.887 68.6758 107.66 67.5977 105.082C66.543 102.504 66.0156 99.6797 66.0156 96.6094V86.9766C66.0156 83.9297 66.543 81.1172 67.5977 78.5391C68.6758 75.9375 70.1523 73.7109 72.0273 71.8594C73.9023 69.9844 76.1289 68.5195 78.707 67.4648C81.2852 66.4102 84.0859 65.8828 87.1094 65.8828H99.4844C102.508 65.8828 105.297 66.4102 107.852 67.4648C110.43 68.5195 112.656 69.9844 114.531 71.8594C116.406 73.7109 117.871 75.9375 118.926 78.5391C119.98 81.1172 120.508 83.9297 120.508 86.9766V96.6094ZM111.367 86.9766C111.367 85.1719 111.074 83.543 110.488 82.0898C109.926 80.6133 109.117 79.3594 108.062 78.3281C107.031 77.2734 105.777 76.4648 104.301 75.9023C102.848 75.3164 101.242 75.0234 99.4844 75.0234H87.1094C85.3281 75.0234 83.6992 75.3164 82.2227 75.9023C80.7695 76.4648 79.5156 77.2734 78.4609 78.3281C77.4062 79.3594 76.5859 80.6133 76 82.0898C75.4375 83.543 75.1562 85.1719 75.1562 86.9766V96.6094C75.1562 98.4141 75.4375 100.055 76 101.531C76.5859 102.984 77.4062 104.238 78.4609 105.293C79.5156 106.324 80.7695 107.133 82.2227 107.719C83.6992 108.281 85.3281 108.562 87.1094 108.562H99.4141C101.195 108.562 102.812 108.281 104.266 107.719C105.742 107.133 107.008 106.324 108.062 105.293C109.117 104.238 109.926 102.984 110.488 101.531C111.074 100.055 111.367 98.4141 111.367 96.6094V86.9766ZM182.453 96.6094C182.453 99.6797 181.926 102.504 180.871 105.082C179.816 107.66 178.352 109.887 176.477 111.762C174.602 113.637 172.375 115.102 169.797 116.156C167.242 117.188 164.453 117.703 161.43 117.703H149.055C146.031 117.703 143.23 117.188 140.652 116.156C138.074 115.102 135.848 113.637 133.973 111.762C132.098 109.887 130.621 107.66 129.543 105.082C128.488 102.504 127.961 99.6797 127.961 96.6094V86.9766C127.961 83.9297 128.488 81.1172 129.543 78.5391C130.621 75.9375 132.098 73.7109 133.973 71.8594C135.848 69.9844 138.074 68.5195 140.652 67.4648C143.23 66.4102 146.031 65.8828 149.055 65.8828H161.43C164.453 65.8828 167.242 66.4102 169.797 67.4648C172.375 68.5195 174.602 69.9844 176.477 71.8594C178.352 73.7109 179.816 75.9375 180.871 78.5391C181.926 81.1172 182.453 83.9297 182.453 86.9766V96.6094ZM173.312 86.9766C173.312 85.1719 173.02 83.543 172.434 82.0898C171.871 80.6133 171.062 79.3594 170.008 78.3281C168.977 77.2734 167.723 76.4648 166.246 75.9023C164.793 75.3164 163.188 75.0234 161.43 75.0234H149.055C147.273 75.0234 145.645 75.3164 144.168 75.9023C142.715 76.4648 141.461 77.2734 140.406 78.3281C139.352 79.3594 138.531 80.6133 137.945 82.0898C137.383 83.543 137.102 85.1719 137.102 86.9766V96.6094C137.102 98.4141 137.383 100.055 137.945 101.531C138.531 102.984 139.352 104.238 140.406 105.293C141.461 106.324 142.715 107.133 144.168 107.719C145.645 108.281 147.273 108.562 149.055 108.562H161.359C163.141 108.562 164.758 108.281 166.211 107.719C167.688 107.133 168.953 106.324 170.008 105.293C171.062 104.238 171.871 102.984 172.434 101.531C173.02 100.055 173.312 98.4141 173.312 96.6094V86.9766ZM236.348 75.7266H216.203V117H207.062V75.7266H186.883V66.5859H236.348V75.7266ZM291.543 102.164C291.543 103.969 291.309 105.598 290.84 107.051C290.395 108.48 289.797 109.746 289.047 110.848C288.297 111.949 287.418 112.887 286.41 113.66C285.402 114.434 284.359 115.066 283.281 115.559C282.203 116.051 281.102 116.414 279.977 116.648C278.875 116.883 277.832 117 276.848 117H241.586V107.859H276.848C278.605 107.859 279.965 107.344 280.926 106.312C281.91 105.281 282.402 103.898 282.402 102.164C282.402 101.32 282.273 100.547 282.016 99.8438C281.758 99.1406 281.383 98.5312 280.891 98.0156C280.422 97.5 279.836 97.1016 279.133 96.8203C278.453 96.5391 277.691 96.3984 276.848 96.3984H255.824C254.348 96.3984 252.754 96.1406 251.043 95.625C249.332 95.0859 247.738 94.2305 246.262 93.0586C244.809 91.8867 243.59 90.3516 242.605 88.4531C241.645 86.5547 241.164 84.2344 241.164 81.4922C241.164 78.75 241.645 76.4414 242.605 74.5664C243.59 72.668 244.809 71.1328 246.262 69.9609C247.738 68.7656 249.332 67.9102 251.043 67.3945C252.754 66.8555 254.348 66.5859 255.824 66.5859H286.938V75.7266H255.824C254.09 75.7266 252.73 76.2539 251.746 77.3086C250.785 78.3633 250.305 79.7578 250.305 81.4922C250.305 83.25 250.785 84.6445 251.746 85.6758C252.73 86.6836 254.09 87.1875 255.824 87.1875H276.848H276.918C277.902 87.2109 278.945 87.3516 280.047 87.6094C281.148 87.8438 282.238 88.2188 283.316 88.7344C284.418 89.25 285.461 89.9062 286.445 90.7031C287.43 91.4766 288.297 92.4141 289.047 93.5156C289.82 94.6172 290.43 95.8828 290.875 97.3125C291.32 98.7422 291.543 100.359 291.543 102.164ZM344.137 75.7266H323.992V117H314.852V75.7266H294.672V66.5859H344.137V75.7266ZM398.594 117H389.453V104.625H357.32V117H348.18V91.793C348.18 88.1133 348.812 84.7266 350.078 81.6328C351.344 78.5391 353.102 75.8789 355.352 73.6523C357.602 71.4258 360.262 69.6914 363.332 68.4492C366.402 67.207 369.754 66.5859 373.387 66.5859H393.988C394.621 66.5859 395.219 66.7031 395.781 66.9375C396.344 67.1719 396.836 67.5 397.258 67.9219C397.68 68.3438 398.008 68.8359 398.242 69.3984C398.477 69.9609 398.594 70.5586 398.594 71.1914V117ZM357.32 95.4844H389.453V75.7266H373.387C373.105 75.7266 372.508 75.7734 371.594 75.8672C370.703 75.9375 369.66 76.1367 368.465 76.4648C367.293 76.793 366.051 77.2969 364.738 77.9766C363.426 78.6562 362.219 79.5938 361.117 80.7891C360.016 81.9844 359.102 83.4844 358.375 85.2891C357.672 87.0703 357.32 89.2383 357.32 91.793V95.4844ZM454.387 117H421.41C420.566 117 419.652 116.906 418.668 116.719C417.707 116.508 416.746 116.191 415.785 115.77C414.848 115.348 413.945 114.809 413.078 114.152C412.211 113.473 411.438 112.664 410.758 111.727C410.102 110.766 409.574 109.664 409.176 108.422C408.777 107.156 408.578 105.738 408.578 104.168V79.418C408.578 78.5742 408.672 77.6719 408.859 76.7109C409.07 75.7266 409.387 74.7656 409.809 73.8281C410.23 72.8672 410.781 71.9531 411.461 71.0859C412.141 70.2188 412.949 69.457 413.887 68.8008C414.848 68.1211 415.949 67.582 417.191 67.1836C418.434 66.7852 419.84 66.5859 421.41 66.5859H454.387V75.7266H421.41C420.215 75.7266 419.301 76.043 418.668 76.6758C418.035 77.3086 417.719 78.2461 417.719 79.4883V104.168C417.719 105.34 418.035 106.254 418.668 106.91C419.324 107.543 420.238 107.859 421.41 107.859H454.387V117ZM515.875 117H502.902L482.336 96.3984H475.902V87.1875H482.336L502.902 66.5859H515.875L489.965 91.793L515.875 117ZM472.246 117H463.105V66.5859H472.246V117Z" fill="white"/>
</svg>
